<svg version="1.1" id="Layer_1" xmlns="http://www.w3.org/2000/svg" xmlns:xlink="http://www.w3.org/1999/xlink" x="0px" y="0px"
	 width="100%" viewBox="0 0 544 544" enable-background="new 0 0 544 544" xml:space="preserve">
<path fill="#E3157A" opacity="1.000000" stroke="none" 
	d="
M356.000000,545.000000 
	C237.360458,545.000000 119.220924,545.000000 1.040696,545.000000 
	C1.040696,363.735443 1.040696,182.470871 1.040696,1.103147 
	C182.222885,1.103147 363.445862,1.103147 544.834412,1.103147 
	C544.834412,182.333206 544.834412,363.666595 544.834412,545.000000 
	C482.137482,545.000000 419.318756,545.000000 356.000000,545.000000 
M224.978012,146.714905 
	C206.286682,143.121902 187.577942,143.314468 168.776505,145.997726 
	C123.507607,152.458328 85.764656,173.591965 53.202148,204.894287 
	C48.493507,209.420685 45.668461,215.046112 45.217796,221.677200 
	C44.750793,228.548691 47.776352,233.823547 54.034241,235.712875 
	C64.351036,238.827576 74.697739,238.583755 83.781075,232.292175 
	C105.020569,217.580704 128.296509,206.930038 151.843124,196.645157 
	C170.653702,188.428909 190.207230,185.828461 210.451080,187.127411 
	C220.059235,187.743912 229.165070,190.179367 237.328232,195.552368 
	C247.569321,202.293060 249.952515,214.189102 242.740189,224.176300 
	C240.524551,227.244415 237.798447,230.075531 234.859924,232.466888 
	C222.892609,242.205826 208.450745,246.248291 193.848953,249.940262 
	C189.538086,251.030228 188.263809,250.025177 187.655731,245.426117 
	C186.486282,236.581635 185.076874,227.597733 182.223175,219.196045 
	C179.465347,211.076614 171.578568,209.957413 166.186249,216.650467 
	C161.431702,222.551926 157.387329,229.169754 153.914688,235.926270 
	C148.586761,246.292526 148.910660,246.437805 137.361526,245.493164 
	C133.538300,245.180450 129.704086,245.002182 124.648064,244.685638 
	C127.922134,250.977936 130.653732,255.718231 132.919876,260.671478 
	C142.506531,281.625641 141.834702,303.645447 137.871536,325.451721 
	C135.293594,339.636322 129.798584,353.267303 126.356224,367.328888 
	C124.803169,373.672882 124.291626,380.510437 124.699699,387.037018 
	C125.238327,395.651550 130.992889,401.459167 139.592560,401.787537 
	C146.608063,402.055389 153.716949,400.549927 160.745697,399.556732 
	C165.267731,398.917755 167.118622,396.030090 167.943222,391.405823 
	C172.623764,365.158356 177.696579,338.980988 182.561203,312.765961 
	C183.096344,309.882172 184.188583,308.351227 187.287613,307.305725 
	C200.671982,302.790405 214.261154,298.605988 227.094238,292.795807 
	C247.730301,283.452789 265.209442,269.649170 278.799683,251.305923 
	C300.831543,221.568634 295.086548,185.049255 265.086761,163.473251 
	C253.246979,154.958008 240.093262,149.586655 224.978012,146.714905 
M314.140594,224.257690 
	C311.582733,232.308319 310.063293,240.911758 306.159088,248.245651 
	C302.637421,254.860962 301.626648,261.022919 302.327606,268.172668 
	C306.017944,305.813324 309.551788,343.469666 313.010040,381.132507 
	C314.171417,393.780487 319.346466,400.347900 331.954346,401.461945 
	C341.485779,402.304169 351.277588,401.884735 360.805084,400.764374 
	C387.314301,397.647095 412.377655,390.119751 433.952911,373.604919 
	C447.080353,363.556519 456.586243,351.009155 459.126709,334.180481 
	C462.896576,309.207550 451.242096,285.996338 428.449463,272.944275 
	C424.030640,270.413849 419.442993,268.178162 413.099487,264.842194 
	C415.414642,263.444366 417.037292,262.805389 418.223785,261.698792 
	C455.507965,226.925125 444.664551,169.546692 397.030975,151.683395 
	C386.561188,147.757050 375.143005,145.668015 363.974274,144.449661 
	C344.319000,142.305588 324.666931,143.826859 305.423462,148.635895 
	C300.452454,149.878189 295.773773,152.290314 289.705658,154.653976 
	C309.381470,174.697083 316.981110,197.303268 314.140594,224.257690 
z"/>
<path fill="#FDFBFD" opacity="1.000000" stroke="none" 
	d="
M225.393250,146.794724 
	C240.093262,149.586655 253.246979,154.958008 265.086761,163.473251 
	C295.086548,185.049255 300.831543,221.568634 278.799683,251.305923 
	C265.209442,269.649170 247.730301,283.452789 227.094238,292.795807 
	C214.261154,298.605988 200.671982,302.790405 187.287613,307.305725 
	C184.188583,308.351227 183.096344,309.882172 182.561203,312.765961 
	C177.696579,338.980988 172.623764,365.158356 167.943222,391.405823 
	C167.118622,396.030090 165.267731,398.917755 160.745697,399.556732 
	C153.716949,400.549927 146.608063,402.055389 139.592560,401.787537 
	C130.992889,401.459167 125.238327,395.651550 124.699699,387.037018 
	C124.291626,380.510437 124.803169,373.672882 126.356224,367.328888 
	C129.798584,353.267303 135.293594,339.636322 137.871536,325.451721 
	C141.834702,303.645447 142.506531,281.625641 132.919876,260.671478 
	C130.653732,255.718231 127.922134,250.977936 124.648064,244.685638 
	C129.704086,245.002182 133.538300,245.180450 137.361526,245.493164 
	C148.910660,246.437805 148.586761,246.292526 153.914688,235.926270 
	C157.387329,229.169754 161.431702,222.551926 166.186249,216.650467 
	C171.578568,209.957413 179.465347,211.076614 182.223175,219.196045 
	C185.076874,227.597733 186.486282,236.581635 187.655731,245.426117 
	C188.263809,250.025177 189.538086,251.030228 193.848953,249.940262 
	C208.450745,246.248291 222.892609,242.205826 234.859924,232.466888 
	C237.798447,230.075531 240.524551,227.244415 242.740189,224.176300 
	C249.952515,214.189102 247.569321,202.293060 237.328232,195.552368 
	C229.165070,190.179367 220.059235,187.743912 210.451080,187.127411 
	C190.207230,185.828461 170.653702,188.428909 151.843124,196.645157 
	C128.296509,206.930038 105.020569,217.580704 83.781075,232.292175 
	C74.697739,238.583755 64.351036,238.827576 54.034241,235.712875 
	C47.776352,233.823547 44.750793,228.548691 45.217796,221.677200 
	C45.668461,215.046112 48.493507,209.420685 53.202148,204.894287 
	C85.764656,173.591965 123.507607,152.458328 168.776505,145.997726 
	C187.577942,143.314468 206.286682,143.121902 225.393250,146.794724 
z"/>
<path fill="#FCC815" opacity="1.000000" stroke="none" 
	d="
M314.193268,223.813873 
	C316.981110,197.303268 309.381470,174.697083 289.705658,154.653976 
	C295.773773,152.290314 300.452454,149.878189 305.423462,148.635895 
	C324.666931,143.826859 344.319000,142.305588 363.974274,144.449661 
	C375.143005,145.668015 386.561188,147.757050 397.030975,151.683395 
	C444.664551,169.546692 455.507965,226.925125 418.223785,261.698792 
	C417.037292,262.805389 415.414642,263.444366 413.099487,264.842194 
	C419.442993,268.178162 424.030640,270.413849 428.449463,272.944275 
	C451.242096,285.996338 462.896576,309.207550 459.126709,334.180481 
	C456.586243,351.009155 447.080353,363.556519 433.952911,373.604919 
	C412.377655,390.119751 387.314301,397.647095 360.805084,400.764374 
	C351.277588,401.884735 341.485779,402.304169 331.954346,401.461945 
	C319.346466,400.347900 314.171417,393.780487 313.010040,381.132507 
	C309.551788,343.469666 306.017944,305.813324 302.327606,268.172668 
	C301.626648,261.022919 302.637421,254.860962 306.159088,248.245651 
	C310.063293,240.911758 311.582733,232.308319 314.193268,223.813873 
M362.271912,365.871857 
	C369.067810,364.244812 375.995209,363.027924 382.630737,360.900665 
	C394.465698,357.106537 405.549896,351.695862 414.319580,342.574005 
	C425.350922,331.099762 425.203003,315.227173 412.912750,305.141022 
	C406.931000,300.232086 399.281189,296.769196 391.834015,294.358398 
	C377.735474,289.794403 362.979736,289.970764 348.262268,290.589935 
	C343.659973,290.783569 342.235596,292.256775 342.701202,296.872314 
	C344.673462,316.423828 346.389587,336.001587 348.135376,355.575409 
	C349.225433,367.796997 349.174286,367.801575 362.271912,365.871857 
M355.848511,255.448166 
	C369.802521,251.624390 383.114197,246.522858 393.402466,235.762512 
	C409.189362,219.251282 404.901184,194.679916 384.375031,184.873428 
	C379.773682,182.675110 374.720123,180.693771 369.720367,180.210861 
	C359.330109,179.207275 348.833771,179.334351 338.386414,178.874954 
	C333.375519,178.654587 332.311371,181.003693 332.741028,185.623291 
	C334.760529,207.336517 336.471588,229.078201 338.379272,250.802155 
	C339.069702,258.664490 339.182098,258.667450 347.212463,257.223511 
	C349.833038,256.752319 352.438354,256.196350 355.848511,255.448166 
z"/>
<path fill="#E31879" opacity="1.000000" stroke="none" 
	d="
M361.838623,365.934021 
	C349.174286,367.801575 349.225433,367.796997 348.135376,355.575409 
	C346.389587,336.001587 344.673462,316.423828 342.701202,296.872314 
	C342.235596,292.256775 343.659973,290.783569 348.262268,290.589935 
	C362.979736,289.970764 377.735474,289.794403 391.834015,294.358398 
	C399.281189,296.769196 406.931000,300.232086 412.912750,305.141022 
	C425.203003,315.227173 425.350922,331.099762 414.319580,342.574005 
	C405.549896,351.695862 394.465698,357.106537 382.630737,360.900665 
	C375.995209,363.027924 369.067810,364.244812 361.838623,365.934021 
z"/>
<path fill="#E31879" opacity="1.000000" stroke="none" 
	d="
M355.449585,255.563660 
	C352.438354,256.196350 349.833038,256.752319 347.212463,257.223511 
	C339.182098,258.667450 339.069702,258.664490 338.379272,250.802155 
	C336.471588,229.078201 334.760529,207.336517 332.741028,185.623291 
	C332.311371,181.003693 333.375519,178.654587 338.386414,178.874954 
	C348.833771,179.334351 359.330109,179.207275 369.720367,180.210861 
	C374.720123,180.693771 379.773682,182.675110 384.375031,184.873428 
	C404.901184,194.679916 409.189362,219.251282 393.402466,235.762512 
	C383.114197,246.522858 369.802521,251.624390 355.449585,255.563660 
z"/>
</svg>