<svg version="1.1" id="Layer_1" xmlns="http://www.w3.org/2000/svg" xmlns:xlink="http://www.w3.org/1999/xlink" x="0px" y="0px"
	 width="100%" viewBox="0 0 544 544" enable-background="new 0 0 544 544" xml:space="preserve">
<path fill="#E2147B" opacity="1.000000" stroke="none" 
	d="
M1.000000,485.000000 
	C1.000000,343.643341 1.000000,202.286682 1.000501,60.098095 
	C1.603958,58.304035 2.323509,57.395382 2.792877,56.371986 
	C15.724258,28.176783 37.158382,10.225924 67.287750,2.680075 
	C68.270447,2.433959 69.099388,1.573879 70.000000,1.000000 
	C205.023331,1.000000 340.046661,1.000000 475.594086,1.361186 
	C477.189362,2.131858 478.230347,2.667838 479.336243,2.931919 
	C496.620819,7.059304 511.414551,15.523949 523.942932,28.121851 
	C533.352600,37.583672 539.805054,48.872974 545.000000,61.000000 
	C545.000000,201.689987 545.000000,342.379974 544.999512,483.902863 
	C544.436523,485.735962 543.785828,486.697235 543.324402,487.742065 
	C531.550049,514.404724 512.256226,532.755066 484.139099,541.389465 
	C480.408356,542.535156 476.712189,543.793701 473.000000,545.000000 
	C339.309998,545.000000 205.620010,545.000000 71.405151,544.636475 
	C69.331001,543.764893 67.810036,543.134949 66.228119,542.767395 
	C48.563004,538.663086 33.803604,529.680847 21.278254,516.644043 
	C12.396004,507.399109 6.347521,496.451447 1.000000,485.000000 
M84.993279,231.987610 
	C84.993279,231.987610 85.026901,232.002350 85.683640,231.944336 
	C86.454391,231.273849 87.225143,230.603363 88.053833,229.694901 
	C88.053833,229.694901 88.293053,229.747467 88.993988,229.673813 
	C89.644310,229.074844 90.294632,228.475876 91.259720,227.351898 
	C92.138809,226.884354 93.017899,226.416824 94.562988,225.917694 
	C95.373024,225.282394 96.183067,224.647095 97.289803,223.513580 
	C97.821014,223.324020 98.352226,223.134460 99.541954,222.923630 
	C100.360786,222.316635 101.179619,221.709641 102.400787,220.573318 
	C103.592865,220.029144 104.784943,219.484955 106.485085,219.228455 
	C109.323143,217.531052 112.161194,215.833649 115.242989,213.730438 
	C115.242989,213.730438 115.657387,213.501526 115.657387,213.501526 
	C115.657387,213.501526 116.127602,213.556549 116.932236,213.634323 
	C118.954193,212.458923 120.976151,211.283524 123.229660,209.699097 
	C123.229660,209.699097 123.639282,209.468552 123.639282,209.468552 
	C123.639282,209.468552 124.106544,209.519638 124.933464,209.613876 
	C128.292511,207.871658 131.651566,206.129456 135.408478,203.947327 
	C135.962845,203.776794 136.517212,203.606247 137.863739,203.563477 
	C139.912720,202.515015 141.961700,201.466553 144.426849,199.980896 
	C144.988815,199.831573 145.550781,199.682266 146.954971,199.622513 
	C150.971710,197.841644 154.988449,196.060776 159.433228,193.874268 
	C159.996613,193.769501 160.559982,193.664734 161.961548,193.644791 
	C164.644943,192.606323 167.328354,191.567841 170.614990,190.156219 
	C171.080215,190.122589 171.545456,190.088959 172.391434,190.684265 
	C176.266922,192.447128 197.317017,189.953842 201.876038,187.027802 
	C204.577133,187.158249 207.278229,187.288681 210.115036,188.037659 
	C212.034073,191.280197 214.003021,189.353134 216.661026,188.003326 
	C217.104141,188.137787 217.547256,188.272247 218.378937,188.956802 
	C221.884796,189.817200 225.390671,190.677612 229.559769,191.524414 
	C231.704056,192.732925 233.848328,193.941437 236.310532,195.718582 
	C237.064148,196.086853 237.817749,196.455139 239.169098,196.950409 
	C240.513138,198.428802 241.857178,199.907211 243.251846,202.232040 
	C243.586121,207.584793 244.313660,212.954346 244.086136,218.283127 
	C243.975006,220.886459 242.085358,223.413864 241.011749,226.009796 
	C241.011749,226.009796 240.976624,226.002289 240.315750,226.152924 
	C238.544449,228.094818 236.773148,230.036728 234.765182,232.464340 
	C234.452621,232.626389 234.140060,232.788452 233.190674,233.032013 
	C232.458298,233.713898 231.725906,234.395798 230.930527,235.317978 
	C230.930527,235.317978 230.688889,235.260300 229.792969,235.159271 
	C226.992065,235.957306 224.061386,236.459686 221.419296,237.619492 
	C216.938080,239.586639 212.725632,242.167725 208.239273,244.121094 
	C203.587219,246.146591 198.743958,247.732849 193.374527,249.862595 
	C192.911392,249.870255 192.448273,249.877914 191.820465,249.267715 
	C190.616516,248.173141 189.412567,247.078568 187.958817,245.327988 
	C188.014145,244.869949 188.069489,244.411926 188.495667,243.373489 
	C191.467148,238.680801 191.337357,234.469086 186.209290,230.359818 
	C186.191467,229.888428 186.173645,229.417038 186.382584,228.606140 
	C186.133148,228.062241 185.883728,227.518356 185.247192,226.375732 
	C185.192551,225.908524 185.137909,225.441299 185.315475,224.615387 
	C185.020065,224.068420 184.724655,223.521454 184.037491,222.529724 
	C183.884506,221.969772 183.731522,221.409805 183.624619,220.166504 
	C183.171906,219.440948 182.719177,218.715378 181.730270,217.601135 
	C180.829498,216.361816 179.928726,215.122498 178.724731,213.226944 
	C172.847351,207.725571 160.987671,212.268509 161.000000,222.000000 
	C161.000000,222.000000 161.041641,222.039429 160.357925,222.190857 
	C157.676620,226.585220 154.309326,230.714188 152.481445,235.438736 
	C149.996155,241.862457 146.475571,245.298309 139.287384,244.079468 
	C137.951431,243.852951 136.446609,244.622452 134.220062,245.120560 
	C133.150497,244.958694 132.080933,244.796844 130.618576,244.085815 
	C128.709213,244.148407 126.799850,244.210999 124.890488,244.273590 
	C125.559311,246.188766 126.228134,248.103928 127.390770,250.361603 
	C127.599228,250.905792 127.807686,251.449982 127.787750,252.408279 
	C128.225037,252.938690 128.662323,253.469101 129.550735,254.295471 
	C129.791473,254.955765 130.032196,255.616043 130.252304,257.022949 
	C131.086731,258.354034 131.921143,259.685150 133.193176,261.505798 
	C133.604385,262.717224 134.015579,263.928680 134.339874,265.923218 
	C135.090042,267.619110 135.840210,269.314972 136.963562,271.602600 
	C136.987259,272.062561 137.010956,272.522491 136.771530,273.331665 
	C137.043915,273.893799 137.316299,274.455963 137.944595,275.624573 
	C137.953033,276.085602 137.961472,276.546661 137.624329,277.510559 
	C137.979874,278.678467 138.335419,279.846405 138.991257,281.645630 
	C138.969666,282.104797 138.948074,282.563934 138.538666,283.746521 
	C138.360504,287.212189 137.797699,290.707764 138.064819,294.138763 
	C140.270905,322.475372 131.312073,348.523743 121.767487,374.447083 
	C119.761490,379.895416 122.459969,391.236206 127.598152,395.314758 
	C130.061874,397.296509 132.525589,399.278259 135.215408,401.748474 
	C136.130219,401.872375 137.045013,401.996246 138.657135,402.004547 
	C139.100204,402.145233 139.543274,402.285889 140.438080,402.987488 
	C143.958160,402.774994 147.478226,402.562500 151.628448,402.034454 
	C152.093185,402.032776 152.557907,402.031097 153.549957,402.362091 
	C155.367294,401.743256 157.184616,401.124420 159.545227,400.109802 
	C160.403427,399.918518 161.261642,399.727234 162.943130,399.627899 
	C167.386276,398.939362 169.797775,396.878845 167.950211,391.252838 
	C168.158325,390.508606 168.366425,389.764404 169.003433,388.741821 
	C169.034622,387.838623 169.065826,386.935394 168.980515,385.256317 
	C169.192596,384.511749 169.404694,383.767181 169.978348,382.804474 
	C169.983047,382.202087 169.987732,381.599701 169.876984,380.226593 
	C170.102142,379.492004 170.327316,378.757385 170.985214,377.749054 
	C171.034882,376.846893 171.084549,375.944733 171.024094,374.342316 
	C171.179749,373.902740 171.335403,373.463135 171.936798,372.757416 
	C171.994232,371.849731 172.051666,370.942078 172.034363,369.326019 
	C172.207367,368.891083 172.380371,368.456116 172.987411,367.749695 
	C173.036163,366.847137 173.084915,365.944550 173.023712,364.344604 
	C173.165848,363.902740 173.307983,363.460876 173.907150,362.758911 
	C173.957977,361.845581 174.008804,360.932281 173.955673,359.322693 
	C174.113068,358.887695 174.270462,358.452698 174.933533,357.761353 
	C175.026611,356.506134 175.119690,355.250916 175.105942,353.309662 
	C175.272507,352.886444 175.439072,352.463257 176.148270,351.925629 
	C176.158096,350.950714 176.167938,349.975769 176.087326,348.306305 
	C176.254745,347.878265 176.422165,347.450256 176.956070,346.812805 
	C176.980087,346.212036 177.004105,345.611267 176.920410,344.237488 
	C177.137619,343.499298 177.354828,342.761078 178.001602,341.746704 
	C178.044327,340.844574 178.087051,339.942444 178.038040,338.336426 
	C178.201019,337.898804 178.363998,337.461151 178.965637,336.754425 
	C179.020828,335.849274 179.076019,334.944122 179.023941,333.338867 
	C179.181885,332.900848 179.339828,332.462830 179.942657,331.756165 
	C179.990799,330.846649 180.038940,329.937164 179.971542,328.254211 
	C180.181900,327.511780 180.392258,326.769318 180.968048,325.812531 
	C180.984741,325.209869 181.001434,324.607208 180.894180,323.316162 
	C181.045349,322.881958 181.196518,322.447754 181.854950,321.707947 
	C181.905655,320.472992 181.956360,319.238007 181.893158,317.236969 
	C182.100906,316.500610 182.308670,315.764282 183.091812,314.782806 
	C185.065323,312.333740 187.038818,309.884674 189.612045,307.069366 
	C190.073181,307.037048 190.534302,307.004730 191.540527,307.267151 
	C194.030807,306.362823 196.521088,305.458496 199.607300,304.168182 
	C200.071457,304.107452 200.535614,304.046692 201.571213,304.336700 
	C204.690933,303.068420 207.810638,301.800140 211.033859,300.449188 
	C211.033859,300.449188 211.120819,300.549103 211.961945,300.636810 
	C215.644424,298.876770 219.326920,297.116699 223.534286,294.855591 
	C226.456192,293.484619 229.378098,292.113647 233.045227,290.755005 
	C234.364182,289.912323 235.683136,289.069611 237.311462,287.721344 
	C238.018585,287.417847 238.725708,287.114380 240.086243,286.746277 
	C240.740097,286.231750 241.393951,285.717224 242.358810,284.685211 
	C242.899399,284.451172 243.439972,284.217133 244.643463,283.932556 
	C245.428543,283.266418 246.213623,282.600250 247.037262,281.685822 
	C247.037262,281.685822 247.286362,281.718628 248.018387,281.714233 
	C249.013947,280.835907 250.009506,279.957581 251.301910,278.502075 
	C253.036560,277.278656 254.771210,276.055267 257.212799,274.769958 
	C258.140411,273.855591 259.068024,272.941223 260.252319,271.425079 
	C262.053619,269.905151 263.854889,268.385223 266.370148,266.757446 
	C267.202240,265.722198 268.034302,264.686981 269.053314,263.039581 
	C270.686523,261.349945 272.319763,259.660278 274.607544,257.818268 
	C275.421051,256.604126 276.234528,255.389999 277.253998,253.522797 
	C278.875214,251.358475 280.496460,249.194168 282.700928,246.687393 
	C283.051239,245.889679 283.401520,245.091965 283.815491,243.643768 
	C284.667603,242.099365 285.519684,240.554947 286.900208,238.614258 
	C287.129913,237.793198 287.359589,236.972122 287.549835,235.557968 
	C287.820923,235.041595 288.092010,234.525238 288.924561,233.666306 
	C290.603607,230.709320 291.967743,227.505630 294.041840,224.858139 
	C296.601410,221.591003 296.457764,220.479523 291.926605,217.889908 
	C291.960876,213.922256 291.995148,209.954620 292.425537,205.467392 
	C293.778961,203.194733 295.091614,201.122894 292.417023,198.608200 
	C291.488708,197.735397 291.418762,195.545746 291.568359,194.017380 
	C291.849426,191.145340 290.486298,190.154633 287.472626,189.521515 
	C284.909851,185.221909 282.347076,180.922302 279.870880,175.687164 
	C280.045502,168.247314 279.881805,168.035217 272.871582,166.699448 
	C271.594330,166.456100 270.313690,166.230423 268.992493,166.014435 
	C268.992493,166.014435 268.998657,165.969040 268.727264,165.382294 
	C268.007538,164.969574 267.287842,164.556870 266.048706,164.069229 
	C265.695007,163.703278 265.341309,163.337326 264.692413,162.372467 
	C263.930939,161.973236 263.169464,161.574020 262.120605,161.212936 
	C262.120605,161.212936 262.015900,160.942596 261.691864,160.346008 
	C260.906219,159.971130 260.120605,159.596237 259.087646,159.284744 
	C259.087646,159.284744 259.018341,159.039032 258.675781,158.418182 
	C257.843658,158.074799 257.011505,157.731415 255.701263,157.393158 
	C255.372086,157.294418 255.142654,157.085922 254.674637,156.208191 
	C253.898926,155.873367 253.123230,155.538544 252.135864,155.305496 
	C252.135864,155.305496 252.030060,155.095856 251.642395,154.517792 
	C244.542191,149.567596 236.756165,146.761230 227.313339,147.056519 
	C226.882568,146.890671 226.451797,146.724808 225.616257,146.009460 
	C216.682159,144.673264 207.775879,143.064682 198.798996,142.147247 
	C195.616898,141.822037 192.262756,143.180099 188.219772,144.037369 
	C187.145264,144.018173 186.070740,143.998993 184.348785,143.598190 
	C181.891632,143.913193 179.434479,144.228195 176.299179,144.924164 
	C175.532883,144.941193 174.766586,144.958206 173.505341,144.630142 
	C172.329697,144.938461 171.154068,145.246780 169.276077,145.884872 
	C168.508224,145.894043 167.740387,145.903214 166.471542,145.585663 
	C165.308212,145.917892 164.144867,146.250107 162.354767,146.908691 
	C161.889465,146.897964 161.424179,146.887238 160.327240,146.533447 
	C150.133713,149.056488 139.911407,151.472122 129.770416,154.191132 
	C127.685356,154.750183 125.904182,156.442657 123.571739,158.042191 
	C123.014328,158.187317 122.456909,158.332443 121.137825,158.373047 
	C119.753593,159.146347 118.369354,159.919662 116.520966,161.155106 
	C115.319237,161.599930 114.117516,162.044754 112.201973,162.435623 
	C111.466270,162.932144 110.730568,163.428665 109.644173,164.414413 
	C108.725761,164.766266 107.807350,165.118118 106.108131,165.382797 
	C104.737679,166.243347 103.367226,167.103912 101.890717,168.229248 
	C101.890717,168.229248 101.607674,168.193939 100.831787,168.219391 
	C98.886253,169.466812 96.940720,170.714218 94.855888,172.230881 
	C94.855888,172.230881 94.557800,172.175705 93.808846,172.209824 
	C92.539955,173.156586 91.271065,174.103333 89.942467,175.296097 
	C89.942467,175.296097 89.695175,175.241913 89.000740,175.313217 
	C88.343079,175.891815 87.685410,176.470413 86.832054,177.528610 
	C86.379639,177.738953 85.927223,177.949295 84.662041,178.217117 
	C76.900444,179.597290 70.300079,182.490707 68.002907,191.003662 
	C68.002907,191.003662 67.995964,191.006348 67.282295,191.046143 
	C65.522202,192.692566 63.762108,194.338974 61.756001,196.576141 
	C60.767876,197.364273 59.779755,198.152420 58.098103,199.013062 
	C55.791763,201.524933 53.485420,204.036804 51.113674,207.053024 
	C50.749222,207.378326 50.384766,207.703629 49.312107,208.244186 
	C48.724022,209.477829 48.135937,210.711456 47.567524,212.532776 
	C47.253895,213.016235 46.940266,213.499680 46.076008,214.315720 
	C45.677837,216.530151 45.279667,218.744583 45.092846,221.753815 
	C45.041611,222.843002 44.990376,223.932205 44.631275,225.461456 
	C44.978420,226.313843 45.325562,227.166229 46.146530,228.535370 
	C47.424809,230.393295 48.703087,232.251236 50.244869,234.726242 
	C52.821129,235.511353 55.397385,236.296463 58.665104,236.952545 
	C59.104382,237.097458 59.543659,237.242386 60.323479,237.976196 
	C63.707062,240.452271 67.006546,241.463638 70.641739,237.095657 
	C71.106628,237.094055 71.571526,237.092453 72.615303,237.430115 
	C74.745918,236.753601 76.876534,236.077103 79.437973,234.932404 
	C80.409042,234.550858 81.380119,234.169312 83.035332,233.717422 
	C83.689835,233.152908 84.344330,232.588409 84.993279,231.987610 
M413.177094,386.799866 
	C413.453094,386.682678 413.704315,386.525848 414.453735,385.829620 
	C434.540161,375.319183 451.679077,362.034424 458.872742,338.826416 
	C458.929657,338.216064 458.986542,337.605743 458.964020,336.320251 
	C459.092651,335.889740 459.221313,335.459259 459.871033,334.670715 
	C459.914337,333.107758 459.957672,331.544769 459.824982,329.090576 
	C459.878723,326.065613 459.932465,323.040619 460.302826,319.591003 
	C460.047607,318.717194 459.792389,317.843384 459.200928,316.193176 
	C454.755219,290.386139 437.684235,275.533203 414.254425,265.085114 
	C415.461700,263.459259 417.058563,262.792145 418.246277,261.685791 
	C440.587128,240.875122 446.601166,211.917831 434.349304,185.156128 
	C428.818787,173.075974 419.823975,164.204117 408.719879,156.314499 
	C407.749908,155.900528 406.779938,155.486557 405.165344,154.975555 
	C404.422882,154.539780 403.680389,154.104004 402.594421,153.402130 
	C402.348572,153.242172 402.083221,153.127121 401.081757,152.991684 
	C397.066803,151.512512 393.051819,150.033325 388.837769,148.169296 
	C388.227081,148.088974 387.616364,148.008652 386.319977,147.953537 
	C385.891937,147.803009 385.463898,147.652481 384.830414,147.126480 
	C384.222778,147.059387 383.615173,146.992294 382.325989,146.973175 
	C381.895081,146.837402 381.464142,146.701630 380.817505,146.177979 
	C380.192200,146.152863 379.566864,146.127762 378.103943,146.159393 
	C370.411377,145.281006 362.718781,144.402618 354.551208,142.988174 
	C351.025665,143.145126 347.500122,143.302078 343.076996,143.685394 
	C339.062500,143.802628 335.047974,143.919861 330.609192,143.717239 
	C329.731720,143.961914 328.854248,144.206604 327.170746,144.746750 
	C325.462189,144.863297 323.753632,144.979843 321.708221,144.827637 
	C321.129639,145.040283 320.551056,145.252930 319.229736,145.783157 
	C318.161926,145.859177 317.094116,145.935196 315.673889,145.764328 
	C315.105225,146.013565 314.536591,146.262802 313.270508,146.821518 
	C312.514709,146.867447 311.758942,146.913391 310.554504,146.661636 
	C309.693787,146.995499 308.833069,147.329361 307.374115,147.977890 
	C306.928894,147.999985 306.483673,148.022079 305.682281,147.789398 
	C305.111664,148.049225 304.541046,148.309036 303.322662,148.955811 
	C300.805237,149.730194 298.287811,150.504578 295.056030,151.335602 
	C294.379547,151.914627 293.703064,152.493652 292.638306,153.701630 
	C292.299011,154.832779 291.959717,155.963928 291.379944,157.739014 
	C290.402863,161.872620 293.137238,162.001816 296.443420,162.198090 
	C296.674377,162.618896 296.905334,163.039688 297.269165,164.130646 
	C297.870117,164.746979 298.471069,165.363327 299.641876,166.331207 
	C302.392639,171.232071 305.143402,176.132919 307.461395,181.556320 
	C305.440033,186.801514 307.797485,193.055161 312.854706,195.729523 
	C312.910828,196.482086 312.966949,197.234634 312.708130,198.424286 
	C313.013855,199.290665 313.319611,200.157043 313.917786,201.729263 
	C313.932922,202.486145 313.948029,203.243042 313.576324,204.728546 
	C311.790710,212.393494 315.297394,221.002777 309.434509,227.940186 
	C312.318573,233.454681 308.455139,238.486649 308.355804,244.392212 
	C307.855438,245.257202 307.355103,246.122177 306.282196,247.339386 
	C305.940918,248.141037 305.599640,248.942703 305.222290,250.374741 
	C304.166107,251.923569 303.109924,253.472397 301.391022,255.385040 
	C299.408569,259.031342 298.898041,262.607758 302.122223,266.652008 
	C302.084198,267.095215 302.046173,267.538452 301.614349,268.673645 
	C302.027130,271.788696 302.439911,274.903748 303.069122,278.652313 
	C303.045593,279.093872 303.022064,279.535400 302.613861,280.637390 
	C303.013550,283.097870 303.413208,285.558380 304.034332,288.656769 
	C304.015533,289.102844 303.996735,289.548920 303.614166,290.592468 
	C303.955383,292.401062 304.296600,294.209625 304.881287,296.841461 
	C304.947754,298.549347 305.014221,300.257202 304.688141,302.557404 
	C305.030457,304.375153 305.372742,306.192902 305.982697,308.731689 
	C305.977783,309.492035 305.972870,310.252380 305.589569,311.687164 
	C306.006348,314.462006 306.423126,317.236847 307.074554,320.645813 
	C307.052338,321.091125 307.030121,321.536469 306.610382,322.673126 
	C307.325439,328.124878 308.040497,333.576630 309.014313,339.738739 
	C309.006622,340.487335 308.998932,341.235901 308.618347,342.616272 
	C308.987183,344.750122 309.356049,346.883942 309.984863,349.781525 
	C309.995483,350.849060 310.006134,351.916565 309.614105,353.692322 
	C309.638245,359.200653 309.594269,364.711273 309.780762,370.214081 
	C309.801849,370.836700 311.121094,371.415375 312.078369,372.647736 
	C312.054260,373.094543 312.030151,373.541321 311.620056,374.644531 
	C312.010986,377.098663 312.401917,379.552795 313.044525,382.728546 
	C313.027771,383.485260 313.011047,384.241974 312.682251,385.434998 
	C312.991730,386.297607 313.301208,387.160187 313.984314,388.651367 
	C317.056213,392.112549 319.636597,396.299133 323.349152,398.814850 
	C326.556274,400.988068 331.050537,401.261688 335.442200,402.943665 
	C339.970032,402.741272 344.497894,402.538910 349.841644,402.080322 
	C351.545502,402.037231 353.249390,401.994141 355.454193,402.305786 
	C356.646729,402.014832 357.839233,401.723877 359.777252,401.136292 
	C360.837524,401.075806 361.897827,401.015320 363.294342,401.215942 
	C363.873657,401.014954 364.453003,400.813934 365.640900,400.332336 
	C366.083679,400.320557 366.526489,400.308777 367.258118,400.799225 
	C368.849487,400.366425 370.440887,399.933624 372.722534,399.174744 
	C373.476532,399.109619 374.230560,399.044525 375.330597,399.228729 
	C375.895447,398.985596 376.460327,398.742462 377.774567,398.141724 
	C382.190582,397.119110 386.606567,396.096497 391.385864,395.295319 
	C391.930145,394.999725 392.474426,394.704132 393.694061,394.008942 
	C399.335724,391.978973 404.977417,389.949036 411.090332,387.778961 
	C411.397675,387.661133 411.679657,387.499146 412.294098,386.999817 
	C412.294098,386.999817 412.752899,386.940735 413.177094,386.799866 
z"/>
<path fill="#FDFAFC" opacity="1.000000" stroke="none" 
	d="
M473.468658,545.000000 
	C476.712189,543.793701 480.408356,542.535156 484.139099,541.389465 
	C512.256226,532.755066 531.550049,514.404724 543.324402,487.742065 
	C543.785828,486.697235 544.436523,485.735962 544.999512,484.367859 
	C545.000000,504.266205 545.000000,524.532410 545.000000,545.000000 
	C521.312805,545.000000 497.625061,545.000000 473.468658,545.000000 
z"/>
<path fill="#FDFBFC" opacity="1.000000" stroke="none" 
	d="
M1.000000,485.468658 
	C6.347521,496.451447 12.396004,507.399109 21.278254,516.644043 
	C33.803604,529.680847 48.563004,538.663086 66.228119,542.767395 
	C67.810036,543.134949 69.331001,543.764893 70.940140,544.636475 
	C47.745461,545.000000 24.490919,545.000000 1.000000,545.000000 
	C1.000000,525.313049 1.000000,505.625183 1.000000,485.468658 
z"/>
<path fill="#FDFAFC" opacity="1.000000" stroke="none" 
	d="
M545.000000,60.531342 
	C539.805054,48.872974 533.352600,37.583672 523.942932,28.121851 
	C511.414551,15.523949 496.620819,7.059304 479.336243,2.931919 
	C478.230347,2.667838 477.189362,2.131858 476.059082,1.361186 
	C498.921722,1.000000 521.843445,1.000000 545.000000,1.000000 
	C545.000000,20.686939 545.000000,40.374809 545.000000,60.531342 
z"/>
<path fill="#FDFAFC" opacity="1.000000" stroke="none" 
	d="
M69.531342,1.000000 
	C69.099388,1.573879 68.270447,2.433959 67.287750,2.680075 
	C37.158382,10.225924 15.724258,28.176783 2.792877,56.371986 
	C2.323509,57.395382 1.603958,58.304035 1.000501,59.633080 
	C1.000000,40.400787 1.000000,20.801579 1.000000,1.000000 
	C23.687160,1.000000 46.374920,1.000000 69.531342,1.000000 
z"/>
<path fill="#FDFBFD" opacity="1.000000" stroke="none" 
	d="
M85.474808,178.159637 
	C85.927223,177.949295 86.379639,177.738953 87.266441,177.250656 
	C88.365616,176.395782 89.030396,175.818848 89.695175,175.241913 
	C89.695175,175.241913 89.942467,175.296097 90.317223,175.141464 
	C91.980583,174.049789 93.269188,173.112747 94.557800,172.175705 
	C94.557800,172.175705 94.855888,172.230881 95.278458,172.087463 
	C97.669914,170.694016 99.638794,169.443970 101.607666,168.193939 
	C101.607674,168.193939 101.890717,168.229248 102.295624,168.089859 
	C104.096672,167.123642 105.492805,166.296799 106.888931,165.469971 
	C107.807350,165.118118 108.725761,164.766266 110.160133,164.172440 
	C111.422661,163.450165 112.169228,162.969879 112.915794,162.489563 
	C114.117516,162.044754 115.319237,161.599930 117.096390,160.922760 
	C119.081047,159.952820 120.490273,159.215195 121.899498,158.477570 
	C122.456909,158.332443 123.014328,158.187317 124.139732,157.845612 
	C136.791443,154.058197 148.875168,150.467361 160.958878,146.876526 
	C161.424179,146.887238 161.889465,146.897964 163.006561,146.826904 
	C164.763077,146.467529 165.867798,146.189957 166.972534,145.912384 
	C167.740387,145.903214 168.508224,145.894043 169.966492,145.816940 
	C171.771362,145.491089 172.885834,145.233170 174.000290,144.975235 
	C174.766586,144.958206 175.532883,144.941193 177.047089,144.828903 
	C180.195404,144.482361 182.595810,144.231079 184.996231,143.979797 
	C186.070740,143.998993 187.145264,144.018173 189.057800,144.027069 
	C201.937546,144.864182 213.979294,145.711563 226.021027,146.558960 
	C226.451797,146.724808 226.882568,146.890671 227.957626,147.226807 
	C236.411301,149.963348 244.220673,152.529602 252.030060,155.095856 
	C252.030060,155.095856 252.135864,155.305496 252.412048,155.534225 
	C253.463135,156.097870 254.238037,156.432785 255.012939,156.767700 
	C255.142654,157.085922 255.372086,157.294418 256.133484,157.672058 
	C257.383270,158.313660 258.200806,158.676346 259.018341,159.039032 
	C259.018341,159.039032 259.087646,159.284744 259.384094,159.539108 
	C260.458984,160.176514 261.237457,160.559555 262.015900,160.942596 
	C262.015900,160.942596 262.120605,161.212936 262.420166,161.486893 
	C263.475677,162.164352 264.231659,162.567871 264.987610,162.971375 
	C265.341309,163.337326 265.695007,163.703278 266.449707,164.394073 
	C267.566711,165.135620 268.282684,165.552322 268.998657,165.969025 
	C268.998657,165.969040 268.992493,166.014435 269.135986,166.314392 
	C272.781067,169.950439 276.282684,173.286560 279.784302,176.622681 
	C282.347076,180.922302 284.909851,185.221909 287.730042,190.152725 
	C289.334778,195.851624 290.682098,200.919296 292.029419,205.986969 
	C291.995148,209.954620 291.960876,213.922256 291.822876,218.582245 
	C290.600464,224.186005 289.481781,229.097443 288.363098,234.008881 
	C288.092010,234.525238 287.820923,235.041595 287.317932,236.062683 
	C286.847961,237.381775 286.609863,238.196152 286.371765,239.010529 
	C285.519684,240.554947 284.667603,242.099365 283.500305,244.146637 
	C282.829285,245.442963 282.473511,246.236420 282.117706,247.029861 
	C280.496460,249.194168 278.875214,251.358475 276.860901,253.968643 
	C275.629517,255.599869 274.791260,256.785248 273.952972,257.970642 
	C272.319763,259.660278 270.686523,261.349945 268.645721,263.459045 
	C267.377472,264.874115 266.516815,265.869690 265.656158,266.865265 
	C263.854889,268.385223 262.053619,269.905151 259.802643,271.791687 
	C258.403931,273.049469 257.454895,273.940643 256.505859,274.831848 
	C254.771210,276.055267 253.036560,277.278656 250.823639,278.838226 
	C249.325684,280.022461 248.306030,280.870544 247.286362,281.718628 
	C247.286362,281.718628 247.037262,281.685822 246.701569,281.850891 
	C245.570770,282.671661 244.775665,283.327393 243.980560,283.983093 
	C243.439972,284.217133 242.899399,284.451172 241.882645,284.974854 
	C240.748596,285.779968 240.090714,286.295441 239.432831,286.810913 
	C238.725708,287.114380 238.018585,287.417847 236.818024,287.995056 
	C234.983047,289.093384 233.641525,289.918030 232.300003,290.742676 
	C229.378098,292.113647 226.456192,293.484619 222.916412,295.093933 
	C218.572617,297.071198 214.846725,298.810150 211.120819,300.549103 
	C211.120819,300.549103 211.033859,300.449188 210.581268,300.491821 
	C207.085693,301.684937 204.042740,302.835449 200.999771,303.985962 
	C200.535614,304.046692 200.071457,304.107452 198.952423,304.299683 
	C195.863495,305.278290 193.429474,306.125366 190.995438,306.972412 
	C190.534302,307.004730 190.073181,307.037048 188.945969,307.178772 
	C182.955841,307.334137 182.360245,310.901123 182.516449,315.027954 
	C182.308670,315.764282 182.100906,316.500610 181.745789,317.904541 
	C181.514862,319.719269 181.431274,320.866394 181.347687,322.013550 
	C181.196518,322.447754 181.045349,322.881958 180.765411,323.865662 
	C180.625290,324.952393 180.613953,325.489624 180.602615,326.026886 
	C180.392258,326.769318 180.181900,327.511780 179.831497,328.892792 
	C179.626892,330.362518 179.562332,331.193665 179.497772,332.024811 
	C179.339828,332.462830 179.181885,332.900848 178.879059,333.939789 
	C178.665100,335.368317 178.596024,336.195923 178.526978,337.023529 
	C178.363998,337.461151 178.201019,337.898804 177.885468,338.938171 
	C177.679260,340.367584 177.625626,341.195221 177.572021,342.022888 
	C177.354828,342.761078 177.137619,343.499298 176.786255,344.828339 
	C176.631271,345.953522 176.610443,346.487885 176.589600,347.022217 
	C176.422165,347.450256 176.254745,347.878265 175.934113,348.909973 
	C175.722473,350.355804 175.664062,351.197906 175.605652,352.040039 
	C175.439072,352.463257 175.272507,352.886444 174.955688,353.941162 
	C174.679581,355.721008 174.553711,356.869354 174.427856,358.017700 
	C174.270462,358.452698 174.113068,358.887695 173.798492,359.915344 
	C173.577591,361.345001 173.513855,362.182007 173.450119,363.019012 
	C173.307983,363.460876 173.165848,363.902740 172.878403,364.940918 
	C172.673172,366.365234 172.613251,367.193176 172.553345,368.021149 
	C172.380371,368.456116 172.207367,368.891083 171.874115,369.931793 
	C171.639603,371.366241 171.565323,372.194885 171.491058,373.023560 
	C171.335403,373.463135 171.179749,373.902740 170.888062,374.946777 
	C170.685516,376.375122 170.619003,377.198944 170.552490,378.022797 
	C170.327316,378.757385 170.102142,379.492004 169.746887,380.819244 
	C169.616791,381.948792 169.616776,382.485718 169.616760,383.022614 
	C169.404694,383.767181 169.192596,384.511749 168.849243,385.899475 
	C168.670166,387.368469 168.622360,388.194305 168.574554,389.020172 
	C168.366425,389.764404 168.158325,390.508606 167.818604,391.938721 
	C167.488968,396.263672 165.069916,398.113678 162.119843,399.535950 
	C161.261642,399.727234 160.403427,399.918518 158.924561,400.262207 
	C156.543488,400.952850 154.783066,401.491150 153.022644,402.029449 
	C152.557907,402.031097 152.093185,402.032776 150.864700,402.095154 
	C146.729416,402.246094 143.357880,402.336334 139.986343,402.426575 
	C139.543274,402.285889 139.100204,402.145233 138.063980,401.854614 
	C136.643646,401.556458 135.816467,401.408234 134.989319,401.260010 
	C132.525589,399.278259 130.061874,397.296509 127.249146,394.771545 
	C126.009979,390.040741 124.591820,385.885773 124.330841,381.659332 
	C123.611298,370.006683 128.616379,359.531769 132.146927,348.852814 
	C138.611771,329.298523 141.352570,309.361145 139.962738,288.842865 
	C139.830368,286.888519 139.281815,284.962341 138.926483,283.023102 
	C138.948074,282.563934 138.969666,282.104797 138.940399,280.991241 
	C138.582993,279.227142 138.276443,278.117401 137.969894,277.007690 
	C137.961472,276.546661 137.953033,276.085602 137.844055,275.046814 
	C137.507217,273.973511 137.270935,273.477997 137.034653,272.982452 
	C137.010956,272.522491 136.987259,272.062561 136.804077,270.955688 
	C135.905334,268.585876 135.166061,266.862976 134.426788,265.140106 
	C134.015579,263.928680 133.604385,262.717224 132.987671,260.916840 
	C131.945755,258.977356 131.109344,257.626862 130.272919,256.276337 
	C130.032196,255.616043 129.791473,254.955765 129.329498,253.842010 
	C128.744217,252.923767 128.380173,252.458969 128.016144,251.994171 
	C127.807686,251.449982 127.599228,250.905792 127.093994,249.804138 
	C126.468727,248.039139 126.140228,246.831589 125.745613,245.380981 
	C127.811073,245.088379 129.411224,244.861679 131.011368,244.634979 
	C132.080933,244.796844 133.150497,244.958694 134.983673,245.209717 
	C139.056320,245.545883 142.399750,246.176453 145.660400,245.884048 
	C147.385803,245.729324 149.672363,244.357269 150.492798,242.867081 
	C154.243881,236.053802 157.565643,229.004150 161.041641,222.039429 
	C161.041641,222.039429 161.000000,222.000000 161.322510,221.873734 
	C166.172012,216.324783 170.266678,209.946518 179.027954,213.883179 
	C179.928726,215.122498 180.829498,216.361816 182.014297,218.119995 
	C182.725067,219.375839 183.151794,220.112854 183.578537,220.849854 
	C183.731522,221.409805 183.884506,221.969772 184.174744,223.029388 
	C184.569092,224.010742 184.826187,224.492416 185.083282,224.974091 
	C185.137909,225.441299 185.192551,225.908524 185.357224,226.937836 
	C185.696777,227.981857 185.926300,228.463745 186.155823,228.945648 
	C186.173645,229.417038 186.191467,229.888428 186.317505,231.073456 
	C186.992096,235.842682 187.558472,239.898285 188.124832,243.953888 
	C188.069489,244.411926 188.014145,244.869949 187.958405,246.017609 
	C187.958008,249.467560 188.246826,251.861923 191.985138,249.885574 
	C192.448273,249.877914 192.911392,249.870255 194.064285,249.746078 
	C200.609924,247.956146 206.658218,246.757614 212.270706,244.483505 
	C218.614334,241.913162 224.566498,238.376663 230.688904,235.260315 
	C230.688889,235.260300 230.930527,235.317978 231.275146,235.168091 
	C232.355682,234.328979 233.091599,233.639755 233.827499,232.950516 
	C234.140060,232.788452 234.452621,232.626389 235.212097,232.162323 
	C237.431549,229.907639 239.204086,227.954971 240.976624,226.002289 
	C240.976624,226.002289 241.011749,226.009796 241.320099,225.865601 
	C248.147873,217.225616 248.731674,208.192322 243.201218,201.385605 
	C241.857178,199.907211 240.513138,198.428802 238.707199,196.605164 
	C237.494400,195.889938 236.743500,195.519943 235.992615,195.149948 
	C233.848328,193.941437 231.704056,192.732925 228.971832,191.248566 
	C224.919388,190.117386 221.454880,189.262039 217.990372,188.406708 
	C217.547256,188.272247 217.104141,188.137787 215.999176,187.832001 
	C213.551315,187.580154 211.765320,187.499634 209.979324,187.419128 
	C207.278229,187.288681 204.577133,187.158249 200.996643,187.006927 
	C190.748383,188.009155 181.379532,189.032242 172.010681,190.055344 
	C171.545456,190.088959 171.080215,190.122589 169.954132,190.306702 
	C166.569962,191.491455 163.846664,192.525726 161.123367,193.559998 
	C160.559982,193.664734 159.996613,193.769501 158.852448,194.062180 
	C154.218689,196.011047 150.165726,197.772003 146.112747,199.532959 
	C145.550781,199.682266 144.988815,199.831573 143.872772,200.174072 
	C141.236328,201.390076 139.153961,202.412888 137.071579,203.435699 
	C136.517212,203.606247 135.962845,203.776794 134.858322,204.165955 
	C130.907623,206.096252 127.507080,207.807938 124.106537,209.519623 
	C124.106544,209.519638 123.639282,209.468552 123.639282,209.468552 
	C123.639282,209.468552 123.229660,209.699097 122.760696,209.911499 
	C120.237030,211.268112 118.182320,212.412338 116.127602,213.556549 
	C116.127602,213.556549 115.657387,213.501526 115.657387,213.501526 
	C115.657387,213.501526 115.242989,213.730438 114.767914,213.949524 
	C111.520897,215.759323 108.748955,217.350037 105.977013,218.940765 
	C104.784943,219.484955 103.592865,220.029144 101.883530,220.850525 
	C100.538666,221.733475 99.711052,222.339188 98.883438,222.944916 
	C98.352226,223.134460 97.821014,223.324020 96.823219,223.787628 
	C95.536751,224.690872 94.716866,225.320084 93.896988,225.949295 
	C93.017899,226.416824 92.138809,226.884354 90.766678,227.659210 
	C89.613441,228.560181 88.953239,229.153824 88.293045,229.747467 
	C88.293053,229.747467 88.053833,229.694901 87.708778,229.847046 
	C86.584785,230.666916 85.805847,231.334641 85.026901,232.002350 
	C85.026901,232.002350 84.993279,231.987610 84.668045,232.051666 
	C83.678947,232.673080 83.015076,233.230423 82.351196,233.787766 
	C81.380119,234.169312 80.409042,234.550858 78.857056,235.169006 
	C76.196236,235.967346 74.116325,236.529099 72.036415,237.090851 
	C71.571526,237.092453 71.106628,237.094055 69.879547,237.173569 
	C66.072540,237.296753 63.027740,237.342026 59.982941,237.387314 
	C59.543659,237.242386 59.104382,237.097458 58.020714,236.830322 
	C54.911331,235.841797 52.446346,234.975479 49.981361,234.109161 
	C48.703087,232.251236 47.424809,230.393295 45.951584,227.961060 
	C45.484135,226.598312 45.211639,225.809845 44.939140,225.021393 
	C44.990376,223.932205 45.041611,222.843002 45.179649,221.054382 
	C45.719841,218.231003 46.173237,216.107071 46.626633,213.983139 
	C46.940266,213.499680 47.253895,213.016235 47.833290,212.040344 
	C48.739483,210.374924 49.379902,209.201920 50.020317,208.028931 
	C50.384766,207.703629 50.749222,207.378326 51.461048,206.648590 
	C54.136158,203.809616 56.463890,201.375076 58.791626,198.940552 
	C59.779755,198.152420 60.767876,197.364273 62.206509,196.221161 
	C64.436661,194.246246 66.216309,192.626297 67.995956,191.006348 
	C67.995964,191.006348 68.002907,191.003662 68.339966,190.933472 
	C74.276291,186.628723 79.875549,182.394180 85.474808,178.159637 
z"/>
<path fill="#FCC815" opacity="1.000000" stroke="none" 
	d="
M409.026184,156.896942 
	C419.823975,164.204117 428.818787,173.075974 434.349304,185.156128 
	C446.601166,211.917831 440.587128,240.875122 418.246277,261.685791 
	C417.058563,262.792145 415.461700,263.459259 414.254425,265.085114 
	C437.684235,275.533203 454.755219,290.386139 459.290161,316.890747 
	C459.581665,318.397430 459.783905,319.206543 459.986176,320.015656 
	C459.932465,323.040619 459.878723,326.065613 459.736267,329.858948 
	C459.548370,332.094452 459.449188,333.561615 459.349976,335.028748 
	C459.221313,335.459259 459.092651,335.889740 458.826080,336.871796 
	C458.624573,337.960785 458.560974,338.498260 458.497406,339.035706 
	C451.679077,362.034424 434.540161,375.319183 413.954407,386.081696 
	C413.124268,386.424103 412.890198,386.626404 412.752899,386.940735 
	C412.752899,386.940735 412.294098,386.999817 411.857544,387.149597 
	C411.153656,387.505951 410.886383,387.712524 410.619080,387.919128 
	C404.977417,389.949036 399.335724,391.978973 393.082275,394.177795 
	C391.987854,394.589081 391.505219,394.831512 391.022583,395.073914 
	C386.606567,396.096497 382.190582,397.119110 377.130157,398.264374 
	C375.985352,398.584503 375.484955,398.781952 374.984558,398.979401 
	C374.230560,399.044525 373.476532,399.109619 372.012207,399.281891 
	C369.857666,399.691681 368.413452,399.994354 366.969269,400.297028 
	C366.526489,400.308777 366.083679,400.320557 365.071381,400.388977 
	C363.987274,400.615356 363.472687,400.785126 362.958099,400.954834 
	C361.897827,401.015320 360.837524,401.075806 359.061066,401.202850 
	C357.214325,401.496613 356.083801,401.723816 354.953247,401.951050 
	C353.249390,401.994141 351.545502,402.037231 348.973145,402.126282 
	C343.728363,402.239838 339.352081,402.307465 334.975800,402.375092 
	C331.050537,401.261688 326.556274,400.988068 323.349152,398.814850 
	C319.636597,396.299133 317.056213,392.112549 313.854797,388.022614 
	C313.481628,386.595459 313.237976,385.797089 312.994324,384.998688 
	C313.011047,384.241974 313.027771,383.485260 313.007141,381.954529 
	C312.648529,378.783081 312.327301,376.385590 312.006042,373.988129 
	C312.030151,373.541321 312.054260,373.094543 312.045410,371.885925 
	C311.347229,365.077454 310.681976,359.030792 310.016754,352.984100 
	C310.006134,351.916565 309.995483,350.849060 309.952209,349.000427 
	C309.610138,346.141022 309.300690,344.062775 308.991241,341.984497 
	C308.998932,341.235901 309.006622,340.487335 308.962708,338.941650 
	C308.276703,332.756958 307.642303,327.369385 307.007874,321.981781 
	C307.030121,321.536469 307.052338,321.091125 307.047058,319.903564 
	C306.669067,316.445129 306.318512,313.728943 305.967987,311.012726 
	C305.972870,310.252380 305.977783,309.492035 305.947144,307.989197 
	C305.634613,305.486176 305.357666,303.725616 305.080688,301.965088 
	C305.014221,300.257202 304.947754,298.549347 304.847015,296.046814 
	C304.534485,293.499786 304.256226,291.747375 303.977936,289.994995 
	C303.996735,289.548920 304.015533,289.102844 304.002686,287.921936 
	C303.646851,284.783722 303.322662,282.380341 302.998535,279.976959 
	C303.022064,279.535400 303.045593,279.093872 303.055115,277.900574 
	C302.696808,274.093140 302.352478,271.037384 302.008148,267.981659 
	C302.046173,267.538452 302.084198,267.095215 302.102264,265.882996 
	C302.072784,261.749756 302.063263,258.385498 302.053711,255.021225 
	C303.109924,253.472397 304.166107,251.923569 305.515564,249.869217 
	C306.157501,248.571518 306.506104,247.779343 306.854736,246.987167 
	C307.355103,246.122177 307.855438,245.257202 308.617676,243.840942 
	C314.380890,230.685654 316.263306,217.613373 313.963135,203.999924 
	C313.948029,203.243042 313.932922,202.486145 313.840973,201.061279 
	C313.517151,199.591263 313.270111,198.789230 313.023071,197.987198 
	C312.966949,197.234634 312.910828,196.482086 312.728210,195.011139 
	C311.032501,189.873108 309.463348,185.453445 307.894165,181.033783 
	C305.143402,176.132919 302.392639,171.232071 299.285278,165.834793 
	C298.331207,164.712418 297.733765,164.086456 297.136292,163.460495 
	C296.905334,163.039688 296.674377,162.618896 296.107788,161.790421 
	C294.388275,159.953522 293.004364,158.524307 291.620453,157.095078 
	C291.959717,155.963928 292.299011,154.832779 293.157715,153.309967 
	C294.374847,152.371857 295.072632,151.825409 295.770386,151.278961 
	C298.287811,150.504578 300.805237,149.730194 303.921906,148.815948 
	C305.026917,148.465439 305.532684,148.254807 306.038452,148.044174 
	C306.483673,148.022079 306.928894,147.999985 307.991577,147.871140 
	C309.407074,147.496033 310.205109,147.227692 311.003143,146.959351 
	C311.758942,146.913391 312.514709,146.867447 313.891968,146.725281 
	C315.017731,146.423096 315.522034,146.217163 316.026306,146.011230 
	C317.094116,145.935196 318.161926,145.859177 319.869507,145.697296 
	C321.021210,145.439743 321.533142,145.268066 322.045074,145.096375 
	C323.753632,144.979843 325.462189,144.863297 327.882050,144.684067 
	C329.406738,144.426620 330.220093,144.231857 331.033478,144.037094 
	C335.047974,143.919861 339.062500,143.802628 343.975525,143.680069 
	C348.258118,143.624573 351.642181,143.574402 355.026215,143.524231 
	C362.718781,144.402618 370.411377,145.281006 378.746338,146.302063 
	C379.936890,146.485092 380.485046,146.525467 381.033234,146.565842 
	C381.464142,146.701630 381.895081,146.837402 382.880615,147.123657 
	C383.968781,147.350082 384.502319,147.426025 385.035858,147.501968 
	C385.463898,147.652481 385.891937,147.803009 386.873535,148.123444 
	C387.963715,148.380280 388.500275,148.467224 389.036865,148.554138 
	C393.051819,150.033325 397.066803,151.512512 401.572144,153.216507 
	C402.317535,153.659012 402.609314,153.734650 402.937927,153.668213 
	C403.680389,154.104004 404.422882,154.539780 405.674438,155.283844 
	C407.131073,156.027069 408.078644,156.462006 409.026184,156.896942 
M355.811066,290.315125 
	C353.482880,290.429596 351.154297,290.535950 348.826630,290.660034 
	C342.374054,291.004059 342.268372,291.024414 342.833618,297.297272 
	C344.806091,319.186127 346.921448,341.062378 348.802460,362.958923 
	C349.112396,366.567444 350.585114,367.427338 353.901154,367.031006 
	C367.703613,365.381317 381.369385,362.879425 393.749817,356.401306 
	C401.037170,352.588165 408.298737,348.050964 414.198700,342.404541 
	C425.675873,331.420563 425.174866,315.234161 412.904938,305.119843 
	C407.055756,300.298279 399.621918,296.299133 392.290405,294.628540 
	C380.714355,291.990753 368.619965,291.627747 355.811066,290.315125 
M377.051971,247.648315 
	C379.633423,246.127014 382.307220,244.741348 384.778748,243.058609 
	C391.784393,238.288742 397.764679,232.512512 400.725372,224.358810 
	C406.609192,208.155045 400.274261,192.518280 384.683807,184.951355 
	C369.068512,177.372345 352.411896,177.830658 335.696228,179.154922 
	C332.201355,179.431793 332.546173,181.984604 332.745239,184.325317 
	C334.706451,207.388779 336.763458,230.444412 338.619965,253.516220 
	C338.955139,257.681641 340.909119,258.781006 344.488495,257.712097 
	C355.139282,254.531387 365.756531,251.238358 377.051971,247.648315 
z"/>
<path fill="#E3217D" opacity="1.000000" stroke="none" 
	d="
M138.732574,283.384827 
	C139.281815,284.962341 139.830368,286.888519 139.962738,288.842865 
	C141.352570,309.361145 138.611771,329.298523 132.146927,348.852814 
	C128.616379,359.531769 123.611298,370.006683 124.330841,381.659332 
	C124.591820,385.885773 126.009979,390.040741 126.958359,394.606079 
	C122.459969,391.236206 119.761490,379.895416 121.767487,374.447083 
	C131.312073,348.523743 140.270905,322.475372 138.064819,294.138763 
	C137.797699,290.707764 138.360504,287.212189 138.732574,283.384827 
z"/>
<path fill="#E3217D" opacity="1.000000" stroke="none" 
	d="
M313.769714,204.364227 
	C316.263306,217.613373 314.380890,230.685654 308.590515,243.536804 
	C308.455139,238.486649 312.318573,233.454681 309.434509,227.940186 
	C315.297394,221.002777 311.790710,212.393494 313.769714,204.364227 
z"/>
<path fill="#E3217D" opacity="1.000000" stroke="none" 
	d="
M172.201050,190.369812 
	C181.379532,189.032242 190.748383,188.009155 200.563080,187.140350 
	C197.317017,189.953842 176.266922,192.447128 172.201050,190.369812 
z"/>
<path fill="#E3217D" opacity="1.000000" stroke="none" 
	d="
M230.240936,235.209793 
	C224.566498,238.376663 218.614334,241.913162 212.270706,244.483505 
	C206.658218,246.757614 200.609924,247.956146 194.369171,249.570389 
	C198.743958,247.732849 203.587219,246.146591 208.239273,244.121094 
	C212.725632,242.167725 216.938080,239.586639 221.419296,237.619492 
	C224.061386,236.459686 226.992065,235.957306 230.240936,235.209793 
z"/>
<path fill="#E3217D" opacity="1.000000" stroke="none" 
	d="
M160.699783,222.115143 
	C157.565643,229.004150 154.243881,236.053802 150.492798,242.867081 
	C149.672363,244.357269 147.385803,245.729324 145.660400,245.884048 
	C142.399750,246.176453 139.056320,245.545883 135.383514,245.115570 
	C136.446609,244.622452 137.951431,243.852951 139.287384,244.079468 
	C146.475571,245.298309 149.996155,241.862457 152.481445,235.438736 
	C154.309326,230.714188 157.676620,226.585220 160.699783,222.115143 
z"/>
<path fill="#E3217D" opacity="1.000000" stroke="none" 
	d="
M225.818634,146.284210 
	C213.979294,145.711563 201.937546,144.864182 189.441498,143.893250 
	C192.262756,143.180099 195.616898,141.822037 198.798996,142.147247 
	C207.775879,143.064682 216.682159,144.673264 225.818634,146.284210 
z"/>
<path fill="#E3217D" opacity="1.000000" stroke="none" 
	d="
M160.643066,146.704987 
	C148.875168,150.467361 136.791443,154.058197 124.345329,157.630859 
	C125.904182,156.442657 127.685356,154.750183 129.770416,154.191132 
	C139.911407,151.472122 150.133713,149.056488 160.643066,146.704987 
z"/>
<path fill="#E3217D" opacity="1.000000" stroke="none" 
	d="
M85.068420,178.188370 
	C79.875549,182.394180 74.276291,186.628723 68.342163,190.930405 
	C70.300079,182.490707 76.900444,179.597290 85.068420,178.188370 
z"/>
<path fill="#E3217D" opacity="1.000000" stroke="none" 
	d="
M279.827576,176.154922 
	C276.282684,173.286560 272.781067,169.950439 269.157043,166.305450 
	C270.313690,166.230423 271.594330,166.456100 272.871582,166.699448 
	C279.881805,168.035217 280.045502,168.247314 279.827576,176.154922 
z"/>
<path fill="#E3217D" opacity="1.000000" stroke="none" 
	d="
M178.876343,213.555054 
	C170.266678,209.946518 166.172012,216.324783 161.343735,221.892761 
	C160.987671,212.268509 172.847351,207.725571 178.876343,213.555054 
z"/>
<path fill="#E3217D" opacity="1.000000" stroke="none" 
	d="
M307.677795,181.295044 
	C309.463348,185.453445 311.032501,189.873108 312.572144,194.664062 
	C307.797485,193.055161 305.440033,186.801514 307.677795,181.295044 
z"/>
<path fill="#E3217D" opacity="1.000000" stroke="none" 
	d="
M243.226532,201.808823 
	C248.731674,208.192322 248.147873,217.225616 241.314560,225.848511 
	C242.085358,223.413864 243.975006,220.886459 244.086136,218.283127 
	C244.313660,212.954346 243.586121,207.584793 243.226532,201.808823 
z"/>
<path fill="#E3217D" opacity="1.000000" stroke="none" 
	d="
M251.836227,154.806824 
	C244.220673,152.529602 236.411301,149.963348 228.305756,147.177246 
	C236.756165,146.761230 244.542191,149.567596 251.836227,154.806824 
z"/>
<path fill="#E3217D" opacity="1.000000" stroke="none" 
	d="
M288.643829,233.837585 
	C289.481781,229.097443 290.600464,224.186005 291.914246,218.989746 
	C296.457764,220.479523 296.601410,221.591003 294.041840,224.858139 
	C291.967743,227.505630 290.603607,230.709320 288.643829,233.837585 
z"/>
<path fill="#E3217D" opacity="1.000000" stroke="none" 
	d="
M292.227478,205.727173 
	C290.682098,200.919296 289.334778,195.851624 287.976990,190.392242 
	C290.486298,190.154633 291.849426,191.145340 291.568359,194.017380 
	C291.418762,195.545746 291.488708,197.735397 292.417023,198.608200 
	C295.091614,201.122894 293.778961,203.194733 292.227478,205.727173 
z"/>
<path fill="#E3217D" opacity="1.000000" stroke="none" 
	d="
M309.815430,353.338196 
	C310.681976,359.030792 311.347229,365.077454 311.925415,371.569275 
	C311.121094,371.415375 309.801849,370.836700 309.780762,370.214081 
	C309.594269,364.711273 309.638245,359.200653 309.815430,353.338196 
z"/>
<path fill="#E3217D" opacity="1.000000" stroke="none" 
	d="
M188.310242,243.663696 
	C187.558472,239.898285 186.992096,235.842682 186.499390,231.381577 
	C191.337357,234.469086 191.467148,238.680801 188.310242,243.663696 
z"/>
<path fill="#E3217D" opacity="1.000000" stroke="none" 
	d="
M306.809143,322.327454 
	C307.642303,327.369385 308.276703,332.756958 308.833344,338.586487 
	C308.040497,333.576630 307.325439,328.124878 306.809143,322.327454 
z"/>
<path fill="#E3217D" opacity="1.000000" stroke="none" 
	d="
M335.208984,402.659363 
	C339.352081,402.307465 343.728363,402.239838 348.565186,402.254364 
	C344.497894,402.538910 339.970032,402.741272 335.208984,402.659363 
z"/>
<path fill="#E3217D" opacity="1.000000" stroke="none" 
	d="
M60.153206,237.681763 
	C63.027740,237.342026 66.072540,237.296753 69.566551,237.335571 
	C67.006546,241.463638 63.707062,240.452271 60.153206,237.681763 
z"/>
<path fill="#E3217D" opacity="1.000000" stroke="none" 
	d="
M182.804138,314.905396 
	C182.360245,310.901123 182.955841,307.334137 188.646103,307.361908 
	C187.038818,309.884674 185.065323,312.333740 182.804138,314.905396 
z"/>
<path fill="#E3217D" opacity="1.000000" stroke="none" 
	d="
M301.722351,255.203125 
	C302.063263,258.385498 302.072784,261.749756 301.989075,265.565796 
	C298.898041,262.607758 299.408569,259.031342 301.722351,255.203125 
z"/>
<path fill="#E3217D" opacity="1.000000" stroke="none" 
	d="
M354.788696,143.256195 
	C351.642181,143.574402 348.258118,143.624573 344.424316,143.566895 
	C347.500122,143.302078 351.025665,143.145126 354.788696,143.256195 
z"/>
<path fill="#E3217D" opacity="1.000000" stroke="none" 
	d="
M140.212219,402.707031 
	C143.357880,402.336334 146.729416,402.246094 150.549622,402.252930 
	C147.478226,402.562500 143.958160,402.774994 140.212219,402.707031 
z"/>
<path fill="#E3217D" opacity="1.000000" stroke="none" 
	d="
M130.814972,244.360413 
	C129.411224,244.861679 127.811073,245.088379 125.745613,245.380981 
	C126.140228,246.831589 126.468727,248.039139 126.847092,249.632904 
	C126.228134,248.103928 125.559311,246.188766 124.890488,244.273590 
	C126.799850,244.210999 128.709213,244.148407 130.814972,244.360413 
z"/>
<path fill="#E3217D" opacity="1.000000" stroke="none" 
	d="
M146.533859,199.577728 
	C150.165726,197.772003 154.218689,196.011047 158.638428,194.265015 
	C154.988449,196.060776 150.971710,197.841644 146.533859,199.577728 
z"/>
<path fill="#E3217D" opacity="1.000000" stroke="none" 
	d="
M211.541382,300.592957 
	C214.846725,298.810150 218.572617,297.071198 222.653961,295.344452 
	C219.326920,297.116699 215.644424,298.876770 211.541382,300.592957 
z"/>
<path fill="#E3217D" opacity="1.000000" stroke="none" 
	d="
M201.285492,304.161316 
	C204.042740,302.835449 207.085693,301.684937 210.529510,300.533142 
	C207.810638,301.800140 204.690933,303.068420 201.285492,304.161316 
z"/>
<path fill="#E3217D" opacity="1.000000" stroke="none" 
	d="
M124.520004,209.566742 
	C127.507080,207.807938 130.907623,206.096252 134.659393,204.385910 
	C131.651566,206.129456 128.292511,207.871658 124.520004,209.566742 
z"/>
<path fill="#E3217D" opacity="1.000000" stroke="none" 
	d="
M301.811249,268.327637 
	C302.352478,271.037384 302.696808,274.093140 302.946899,277.583832 
	C302.439911,274.903748 302.027130,271.788696 301.811249,268.327637 
z"/>
<path fill="#E3217D" opacity="1.000000" stroke="none" 
	d="
M58.444862,198.976807 
	C56.463890,201.375076 54.136158,203.809616 51.493752,206.396408 
	C53.485420,204.036804 55.791763,201.524933 58.444862,198.976807 
z"/>
<path fill="#E3217D" opacity="1.000000" stroke="none" 
	d="
M162.531494,399.581909 
	C165.069916,398.113678 167.488968,396.263672 167.881500,392.325867 
	C169.797775,396.878845 167.386276,398.939362 162.531494,399.581909 
z"/>
<path fill="#E3217D" opacity="1.000000" stroke="none" 
	d="
M106.231049,219.084610 
	C108.748955,217.350037 111.520897,215.759323 114.646042,214.152420 
	C112.161194,215.833649 109.323143,217.531052 106.231049,219.084610 
z"/>
<path fill="#E3217D" opacity="1.000000" stroke="none" 
	d="
M218.184662,188.681763 
	C221.454880,189.262039 224.919388,190.117386 228.640213,191.255371 
	C225.390671,190.677612 221.884796,189.817200 218.184662,188.681763 
z"/>
<path fill="#E3217D" opacity="1.000000" stroke="none" 
	d="
M305.778778,311.349945 
	C306.318512,313.728943 306.669067,316.445129 306.929749,319.586517 
	C306.423126,317.236847 306.006348,314.462006 305.778778,311.349945 
z"/>
<path fill="#E3217D" opacity="1.000000" stroke="none" 
	d="
M191.902802,249.576645 
	C188.246826,251.861923 187.958008,249.467560 188.083313,246.345612 
	C189.412567,247.078568 190.616516,248.173141 191.902802,249.576645 
z"/>
<path fill="#E3217D" opacity="1.000000" stroke="none" 
	d="
M302.806183,280.307190 
	C303.322662,282.380341 303.646851,284.783722 303.891968,287.602966 
	C303.413208,285.558380 303.013550,283.097870 302.806183,280.307190 
z"/>
<path fill="#E3217D" opacity="1.000000" stroke="none" 
	d="
M240.646194,226.077606 
	C239.204086,227.954971 237.431549,229.907639 235.330414,231.919479 
	C236.773148,230.036728 238.544449,228.094818 240.646194,226.077606 
z"/>
<path fill="#E3217D" opacity="1.000000" stroke="none" 
	d="
M210.047180,187.728394 
	C211.765320,187.499634 213.551315,187.580154 215.651413,187.877411 
	C214.003021,189.353134 212.034073,191.280197 210.047180,187.728394 
z"/>
<path fill="#E3217D" opacity="1.000000" stroke="none" 
	d="
M184.672516,143.789001 
	C182.595810,144.231079 180.195404,144.482361 177.386154,144.638428 
	C179.434479,144.228195 181.891632,143.913193 184.672516,143.789001 
z"/>
<path fill="#E3217D" opacity="1.000000" stroke="none" 
	d="
M311.813049,374.316345 
	C312.327301,376.385590 312.648529,378.783081 312.881287,381.593750 
	C312.401917,379.552795 312.010986,377.098663 311.813049,374.316345 
z"/>
<path fill="#E3217D" opacity="1.000000" stroke="none" 
	d="
M291.500183,157.417053 
	C293.004364,158.524307 294.388275,159.953522 295.878967,161.695312 
	C293.137238,162.001816 290.402863,161.872620 291.500183,157.417053 
z"/>
<path fill="#E3217D" opacity="1.000000" stroke="none" 
	d="
M50.113113,234.417694 
	C52.446346,234.975479 54.911331,235.841797 57.674980,236.894836 
	C55.397385,236.296463 52.821129,235.511353 50.113113,234.417694 
z"/>
<path fill="#E3217D" opacity="1.000000" stroke="none" 
	d="
M191.267975,307.119781 
	C193.429474,306.125366 195.863495,305.278290 198.654449,304.492676 
	C196.521088,305.458496 194.030807,306.362823 191.267975,307.119781 
z"/>
<path fill="#E3217D" opacity="1.000000" stroke="none" 
	d="
M161.542450,193.602386 
	C163.846664,192.525726 166.569962,191.491455 169.652496,190.493286 
	C167.328354,191.567841 164.644943,192.606323 161.542450,193.602386 
z"/>
<path fill="#E3217D" opacity="1.000000" stroke="none" 
	d="
M67.639130,191.026245 
	C66.216309,192.626297 64.436661,194.246246 62.329514,195.925797 
	C63.762108,194.338974 65.522202,192.692566 67.639130,191.026245 
z"/>
<path fill="#E3217D" opacity="1.000000" stroke="none" 
	d="
M308.804810,342.300385 
	C309.300690,344.062775 309.610138,346.141022 309.822235,348.618530 
	C309.356049,346.883942 308.987183,344.750122 308.804810,342.300385 
z"/>
<path fill="#E3217D" opacity="1.000000" stroke="none" 
	d="
M46.351318,214.149429 
	C46.173237,216.107071 45.719841,218.231003 45.073975,220.656982 
	C45.279667,218.744583 45.677837,216.530151 46.351318,214.149429 
z"/>
<path fill="#E3217D" opacity="1.000000" stroke="none" 
	d="
M72.325859,237.260498 
	C74.116325,236.529099 76.196236,235.967346 78.641647,235.403091 
	C76.876534,236.077103 74.745918,236.753601 72.325859,237.260498 
z"/>
<path fill="#E3217D" opacity="1.000000" stroke="none" 
	d="
M137.467651,203.499603 
	C139.153961,202.412888 141.236328,201.390076 143.664703,200.392670 
	C141.961700,201.466553 139.912720,202.515015 137.467651,203.499603 
z"/>
<path fill="#E3217D" opacity="1.000000" stroke="none" 
	d="
M303.796051,290.293732 
	C304.256226,291.747375 304.534485,293.499786 304.725281,295.635193 
	C304.296600,294.209625 303.955383,292.401062 303.796051,290.293732 
z"/>
<path fill="#E3217D" opacity="1.000000" stroke="none" 
	d="
M101.219727,168.206665 
	C99.638794,169.443970 97.669914,170.694016 95.348114,171.952835 
	C96.940720,170.714218 98.886253,169.466812 101.219727,168.206665 
z"/>
<path fill="#E3217D" opacity="1.000000" stroke="none" 
	d="
M304.884399,302.261230 
	C305.357666,303.725616 305.634613,305.486176 305.813293,307.628662 
	C305.372742,306.192902 305.030457,304.375153 304.884399,302.261230 
z"/>
<path fill="#E3217D" opacity="1.000000" stroke="none" 
	d="
M116.529922,213.595428 
	C118.182320,212.412338 120.237030,211.268112 122.644928,210.116013 
	C120.976151,211.283524 118.954193,212.458923 116.529922,213.595428 
z"/>
<path fill="#E3217D" opacity="1.000000" stroke="none" 
	d="
M153.286301,402.195770 
	C154.783066,401.491150 156.543488,400.952850 158.652924,400.460083 
	C157.184616,401.124420 155.367294,401.743256 153.286301,402.195770 
z"/>
<path fill="#E3217D" opacity="1.000000" stroke="none" 
	d="
M367.113708,400.548126 
	C368.413452,399.994354 369.857666,399.691681 371.667053,399.444946 
	C370.440887,399.933624 368.849487,400.366425 367.113708,400.548126 
z"/>
<path fill="#E3217D" opacity="1.000000" stroke="none" 
	d="
M459.610535,334.849731 
	C459.449188,333.561615 459.548370,332.094452 459.824280,330.304565 
	C459.957672,331.544769 459.914337,333.107758 459.610535,334.849731 
z"/>
<path fill="#E3217D" opacity="1.000000" stroke="none" 
	d="
M174.680695,357.889526 
	C174.553711,356.869354 174.679581,355.721008 175.009109,354.284180 
	C175.119690,355.250916 175.026611,356.506134 174.680695,357.889526 
z"/>
<path fill="#E3217D" opacity="1.000000" stroke="none" 
	d="
M134.383331,265.531677 
	C135.166061,266.862976 135.905334,268.585876 136.617493,270.659790 
	C135.840210,269.314972 135.090042,267.619110 134.383331,265.531677 
z"/>
<path fill="#E3217D" opacity="1.000000" stroke="none" 
	d="
M274.280273,257.894470 
	C274.791260,256.785248 275.629517,255.599869 276.757874,254.295166 
	C276.234528,255.389999 275.421051,256.604126 274.280273,257.894470 
z"/>
<path fill="#E3217D" opacity="1.000000" stroke="none" 
	d="
M130.262604,256.649658 
	C131.109344,257.626862 131.945755,258.977356 132.768860,260.672058 
	C131.921143,259.685150 131.086731,258.354034 130.262604,256.649658 
z"/>
<path fill="#E3217D" opacity="1.000000" stroke="none" 
	d="
M137.797119,277.259125 
	C138.276443,278.117401 138.582993,279.227142 138.790253,280.675598 
	C138.335419,279.846405 137.979874,278.678467 137.797119,277.259125 
z"/>
<path fill="#E3217D" opacity="1.000000" stroke="none" 
	d="
M232.672607,290.748840 
	C233.641525,289.918030 234.983047,289.093384 236.663330,288.247833 
	C235.683136,289.069611 234.364182,289.912323 232.672607,290.748840 
z"/>
<path fill="#E3217D" opacity="1.000000" stroke="none" 
	d="
M181.601318,321.860748 
	C181.431274,320.866394 181.514862,319.719269 181.802750,318.287598 
	C181.956360,319.238007 181.905655,320.472992 181.601318,321.860748 
z"/>
<path fill="#E3217D" opacity="1.000000" stroke="none" 
	d="
M175.876953,351.982849 
	C175.664062,351.197906 175.722473,350.355804 175.979324,349.257263 
	C176.167938,349.975769 176.158096,350.950714 175.876953,351.982849 
z"/>
<path fill="#E3217D" opacity="1.000000" stroke="none" 
	d="
M121.518661,158.425308 
	C120.490273,159.215195 119.081047,159.952820 117.328476,160.691696 
	C118.369354,159.919662 119.753593,159.146347 121.518661,158.425308 
z"/>
<path fill="#E3217D" opacity="1.000000" stroke="none" 
	d="
M355.203735,402.128418 
	C356.083801,401.723816 357.214325,401.496613 358.688293,401.351166 
	C357.839233,401.723877 356.646729,402.014832 355.203735,402.128418 
z"/>
<path fill="#E3217D" opacity="1.000000" stroke="none" 
	d="
M173.752808,144.802704 
	C172.885834,145.233170 171.771362,145.491089 170.317673,145.652039 
	C171.154068,145.246780 172.329697,144.938461 173.752808,144.802704 
z"/>
<path fill="#E3217D" opacity="1.000000" stroke="none" 
	d="
M94.183319,172.192764 
	C93.269188,173.112747 91.980583,174.049789 90.347076,175.018463 
	C91.271065,174.103333 92.539955,173.156586 94.183319,172.192764 
z"/>
<path fill="#E3217D" opacity="1.000000" stroke="none" 
	d="
M106.498535,165.426376 
	C105.492805,166.296799 104.096672,167.123642 102.348656,167.957458 
	C103.367226,167.103912 104.737679,166.243347 106.498535,165.426376 
z"/>
<path fill="#E3217D" opacity="1.000000" stroke="none" 
	d="
M166.722046,145.749023 
	C165.867798,146.189957 164.763077,146.467529 163.319946,146.663727 
	C164.144867,146.250107 165.308212,145.917892 166.722046,145.749023 
z"/>
<path fill="#E3217D" opacity="1.000000" stroke="none" 
	d="
M247.652374,281.716431 
	C248.306030,280.870544 249.325684,280.022461 250.675201,279.126831 
	C250.009506,279.957581 249.013947,280.835907 247.652374,281.716431 
z"/>
<path fill="#E3217D" opacity="1.000000" stroke="none" 
	d="
M256.859314,274.800903 
	C257.454895,273.940643 258.403931,273.049469 259.674316,272.092560 
	C259.068024,272.941223 258.140411,273.855591 256.859314,274.800903 
z"/>
<path fill="#E3217D" opacity="1.000000" stroke="none" 
	d="
M266.013153,266.811340 
	C266.516815,265.869690 267.377472,264.874115 268.552246,263.765137 
	C268.034302,264.686981 267.202240,265.722198 266.013153,266.811340 
z"/>
<path fill="#E3217D" opacity="1.000000" stroke="none" 
	d="
M49.666214,208.136566 
	C49.379902,209.201920 48.739483,210.374924 47.823456,211.746490 
	C48.135937,210.711456 48.724022,209.477829 49.666214,208.136566 
z"/>
<path fill="#E3217D" opacity="1.000000" stroke="none" 
	d="
M312.865601,198.205750 
	C313.270111,198.789230 313.517151,199.591263 313.694763,200.708374 
	C313.319611,200.157043 313.013855,199.290665 312.865601,198.205750 
z"/>
<path fill="#E3217D" opacity="1.000000" stroke="none" 
	d="
M460.144501,319.803345 
	C459.783905,319.206543 459.581665,318.397430 459.458252,317.278931 
	C459.792389,317.843384 460.047607,318.717194 460.144501,319.803345 
z"/>
<path fill="#E3217D" opacity="1.000000" stroke="none" 
	d="
M312.838287,385.216858 
	C313.237976,385.797089 313.481628,386.595459 313.667969,387.708313 
	C313.301208,387.160187 312.991730,386.297607 312.838287,385.216858 
z"/>
<path fill="#E3217D" opacity="1.000000" stroke="none" 
	d="
M168.789001,388.880981 
	C168.622360,388.194305 168.670166,387.368469 168.907501,386.287415 
	C169.065826,386.935394 169.034622,387.838623 168.789001,388.880981 
z"/>
<path fill="#E3217D" opacity="1.000000" stroke="none" 
	d="
M44.785210,225.241425 
	C45.211639,225.809845 45.484135,226.598312 45.714668,227.702698 
	C45.325562,227.166229 44.978420,226.313843 44.785210,225.241425 
z"/>
<path fill="#E3217D" opacity="1.000000" stroke="none" 
	d="
M310.778809,146.810486 
	C310.205109,147.227692 309.407074,147.496033 308.290710,147.713806 
	C308.833069,147.329361 309.693787,146.995499 310.778809,146.810486 
z"/>
<path fill="#E3217D" opacity="1.000000" stroke="none" 
	d="
M330.821350,143.877167 
	C330.220093,144.231857 329.406738,144.426620 328.285065,144.536346 
	C328.854248,144.206604 329.731720,143.961914 330.821350,143.877167 
z"/>
<path fill="#E3217D" opacity="1.000000" stroke="none" 
	d="
M179.720215,331.890503 
	C179.562332,331.193665 179.626892,330.362518 179.889252,329.279510 
	C180.038940,329.937164 179.990799,330.846649 179.720215,331.890503 
z"/>
<path fill="#E3217D" opacity="1.000000" stroke="none" 
	d="
M170.768860,377.885925 
	C170.619003,377.198944 170.685516,376.375122 170.943115,375.296936 
	C171.084549,375.944733 171.034882,376.846893 170.768860,377.885925 
z"/>
<path fill="#E3217D" opacity="1.000000" stroke="none" 
	d="
M178.746307,336.888977 
	C178.596024,336.195923 178.665100,335.368317 178.932678,334.289856 
	C179.076019,334.944122 179.020828,335.849274 178.746307,336.888977 
z"/>
<path fill="#E3217D" opacity="1.000000" stroke="none" 
	d="
M135.102356,401.504272 
	C135.816467,401.408234 136.643646,401.556458 137.715332,401.912415 
	C137.045013,401.996246 136.130219,401.872375 135.102356,401.504272 
z"/>
<path fill="#E3217D" opacity="1.000000" stroke="none" 
	d="
M177.786804,341.884796 
	C177.625626,341.195221 177.679260,340.367584 177.931335,339.290100 
	C178.087051,339.942444 178.044327,340.844574 177.786804,341.884796 
z"/>
<path fill="#E3217D" opacity="1.000000" stroke="none" 
	d="
M171.713928,372.890503 
	C171.565323,372.194885 171.639603,371.366241 171.911484,370.285980 
	C172.051666,370.942078 171.994232,371.849731 171.713928,372.890503 
z"/>
<path fill="#E3217D" opacity="1.000000" stroke="none" 
	d="
M172.770386,367.885437 
	C172.613251,367.193176 172.673172,366.365234 172.933380,365.289612 
	C173.084915,365.944550 173.036163,366.847137 172.770386,367.885437 
z"/>
<path fill="#E3217D" opacity="1.000000" stroke="none" 
	d="
M173.678635,362.888977 
	C173.513855,362.182007 173.577591,361.345001 173.850464,360.263489 
	C174.008804,360.932281 173.957977,361.845581 173.678635,362.888977 
z"/>
<path fill="#E3217D" opacity="1.000000" stroke="none" 
	d="
M244.312012,283.957825 
	C244.775665,283.327393 245.570770,282.671661 246.682281,281.975037 
	C246.213623,282.600250 245.428543,283.266418 244.312012,283.957825 
z"/>
<path fill="#E3217D" opacity="1.000000" stroke="none" 
	d="
M233.509094,232.991272 
	C233.091599,233.639755 232.355682,234.328979 231.306656,235.047943 
	C231.725906,234.395798 232.458298,233.713898 233.509094,232.991272 
z"/>
<path fill="#E3217D" opacity="1.000000" stroke="none" 
	d="
M85.355270,231.973343 
	C85.805847,231.334641 86.584785,230.666916 87.679810,229.966034 
	C87.225143,230.603363 86.454391,231.273849 85.355270,231.973343 
z"/>
<path fill="#E3217D" opacity="1.000000" stroke="none" 
	d="
M408.873047,156.605728 
	C408.078644,156.462006 407.131073,156.027069 405.996765,155.332352 
	C406.779938,155.486557 407.749908,155.900528 408.873047,156.605728 
z"/>
<path fill="#E3217D" opacity="1.000000" stroke="none" 
	d="
M94.229980,225.933502 
	C94.716866,225.320084 95.536751,224.690872 96.674866,224.036743 
	C96.183067,224.647095 95.373024,225.282394 94.229980,225.933502 
z"/>
<path fill="#E3217D" opacity="1.000000" stroke="none" 
	d="
M99.212692,222.934265 
	C99.711052,222.339188 100.538666,221.733475 101.682365,221.115204 
	C101.179619,221.709641 100.360786,222.316635 99.212692,222.934265 
z"/>
<path fill="#E3217D" opacity="1.000000" stroke="none" 
	d="
M258.847046,158.728607 
	C258.200806,158.676346 257.383270,158.313660 256.372559,157.669510 
	C257.011505,157.731415 257.843658,158.074799 258.847046,158.728607 
z"/>
<path fill="#E3217D" opacity="1.000000" stroke="none" 
	d="
M169.797546,382.913544 
	C169.616776,382.485718 169.616791,381.948792 169.804611,381.204590 
	C169.987732,381.599701 169.983047,382.202087 169.797546,382.913544 
z"/>
<path fill="#E3217D" opacity="1.000000" stroke="none" 
	d="
M458.685059,338.931061 
	C458.560974,338.498260 458.624573,337.960785 458.865784,337.209351 
	C458.986542,337.605743 458.929657,338.216064 458.685059,338.931061 
z"/>
<path fill="#E3217D" opacity="1.000000" stroke="none" 
	d="
M391.204224,395.184631 
	C391.505219,394.831512 391.987854,394.589081 392.744598,394.377625 
	C392.474426,394.704132 391.930145,394.999725 391.204224,395.184631 
z"/>
<path fill="#E3217D" opacity="1.000000" stroke="none" 
	d="
M375.157593,399.104065 
	C375.484955,398.781952 375.985352,398.584503 376.755493,398.443176 
	C376.460327,398.742462 375.895447,398.985596 375.157593,399.104065 
z"/>
<path fill="#E3217D" opacity="1.000000" stroke="none" 
	d="
M236.151581,195.434265 
	C236.743500,195.519943 237.494400,195.889938 238.408325,196.541672 
	C237.817749,196.455139 237.064148,196.086853 236.151581,195.434265 
z"/>
<path fill="#E3217D" opacity="1.000000" stroke="none" 
	d="
M363.126221,401.085388 
	C363.472687,400.785126 363.987274,400.615356 364.767090,400.529266 
	C364.453003,400.813934 363.873657,401.014954 363.126221,401.085388 
z"/>
<path fill="#E3217D" opacity="1.000000" stroke="none" 
	d="
M261.853882,160.644302 
	C261.237457,160.559555 260.458984,160.176514 259.507751,159.507416 
	C260.120605,159.596237 260.906219,159.971130 261.853882,160.644302 
z"/>
<path fill="#E3217D" opacity="1.000000" stroke="none" 
	d="
M264.840027,162.671921 
	C264.231659,162.567871 263.475677,162.164352 262.563843,161.467834 
	C263.169464,161.574020 263.930939,161.973236 264.840027,162.671921 
z"/>
<path fill="#E3217D" opacity="1.000000" stroke="none" 
	d="
M89.347961,175.277557 
	C89.030396,175.818848 88.365616,176.395782 87.364288,177.010864 
	C87.685410,176.470413 88.343079,175.891815 89.347961,175.277557 
z"/>
<path fill="#E3217D" opacity="1.000000" stroke="none" 
	d="
M315.850098,145.887787 
	C315.522034,146.217163 315.017731,146.423096 314.240692,146.570526 
	C314.536591,146.262802 315.105225,146.013565 315.850098,145.887787 
z"/>
<path fill="#E3217D" opacity="1.000000" stroke="none" 
	d="
M112.558884,162.462601 
	C112.169228,162.969879 111.422661,163.450165 110.335480,163.927826 
	C110.730568,163.428665 111.466270,162.932144 112.558884,162.462601 
z"/>
<path fill="#E3217D" opacity="1.000000" stroke="none" 
	d="
M297.202728,163.795563 
	C297.733765,164.086456 298.331207,164.712418 299.000366,165.659027 
	C298.471069,165.363327 297.870117,164.746979 297.202728,163.795563 
z"/>
<path fill="#E3217D" opacity="1.000000" stroke="none" 
	d="
M88.643517,229.710632 
	C88.953239,229.153824 89.613441,228.560181 90.609299,227.921722 
	C90.294632,228.475876 89.644310,229.074844 88.643517,229.710632 
z"/>
<path fill="#E3217D" opacity="1.000000" stroke="none" 
	d="
M306.568481,247.163269 
	C306.506104,247.779343 306.157501,248.571518 305.533630,249.554016 
	C305.599640,248.942703 305.940918,248.141037 306.568481,247.163269 
z"/>
<path fill="#E3217D" opacity="1.000000" stroke="none" 
	d="
M268.862976,165.675659 
	C268.282684,165.552322 267.566711,165.135620 266.709412,164.431534 
	C267.287842,164.556870 268.007538,164.969574 268.862976,165.675659 
z"/>
<path fill="#E3217D" opacity="1.000000" stroke="none" 
	d="
M282.409302,246.858627 
	C282.473511,246.236420 282.829285,245.442963 283.468445,244.471878 
	C283.401520,245.091965 283.051239,245.889679 282.409302,246.858627 
z"/>
<path fill="#E3217D" opacity="1.000000" stroke="none" 
	d="
M286.635986,238.812408 
	C286.609863,238.196152 286.847961,237.381775 287.337646,236.359222 
	C287.359589,236.972122 287.129913,237.793198 286.635986,238.812408 
z"/>
<path fill="#E3217D" opacity="1.000000" stroke="none" 
	d="
M321.876648,144.962006 
	C321.533142,145.268066 321.021210,145.439743 320.240875,145.538498 
	C320.551056,145.252930 321.129639,145.040283 321.876648,144.962006 
z"/>
<path fill="#E3217D" opacity="1.000000" stroke="none" 
	d="
M136.903091,273.157043 
	C137.270935,273.477997 137.507217,273.973511 137.666092,274.743591 
	C137.316299,274.455963 137.043915,273.893799 136.903091,273.157043 
z"/>
<path fill="#E3217D" opacity="1.000000" stroke="none" 
	d="
M305.860352,147.916779 
	C305.532684,148.254807 305.026917,148.465439 304.245789,148.622467 
	C304.541046,148.309036 305.111664,148.049225 305.860352,147.916779 
z"/>
<path fill="#E3217D" opacity="1.000000" stroke="none" 
	d="
M82.693268,233.752594 
	C83.015076,233.230423 83.678947,232.673080 84.670822,232.069824 
	C84.344330,232.588409 83.689835,233.152908 82.693268,233.752594 
z"/>
<path fill="#E3217D" opacity="1.000000" stroke="none" 
	d="
M384.933136,147.314224 
	C384.502319,147.426025 383.968781,147.350082 383.221375,147.099670 
	C383.615173,146.992294 384.222778,147.059387 384.933136,147.314224 
z"/>
<path fill="#E3217D" opacity="1.000000" stroke="none" 
	d="
M239.759537,286.778595 
	C240.090714,286.295441 240.748596,285.779968 241.727142,285.233582 
	C241.393951,285.717224 240.740097,286.231750 239.759537,286.778595 
z"/>
<path fill="#E3217D" opacity="1.000000" stroke="none" 
	d="
M388.937317,148.361725 
	C388.500275,148.467224 387.963715,148.380280 387.216400,148.110840 
	C387.616364,148.008652 388.227081,148.088974 388.937317,148.361725 
z"/>
<path fill="#E3217D" opacity="1.000000" stroke="none" 
	d="
M380.925354,146.371918 
	C380.485046,146.525467 379.936890,146.485092 379.165131,146.273682 
	C379.566864,146.127762 380.192200,146.152863 380.925354,146.371918 
z"/>
<path fill="#E3217D" opacity="1.000000" stroke="none" 
	d="
M186.269196,228.775894 
	C185.926300,228.463745 185.696777,227.981857 185.550781,227.237213 
	C185.883728,227.518356 186.133148,228.062241 186.269196,228.775894 
z"/>
<path fill="#E3217D" opacity="1.000000" stroke="none" 
	d="
M185.199371,224.794739 
	C184.826187,224.492416 184.569092,224.010742 184.370636,223.251770 
	C184.724655,223.521454 185.020065,224.068420 185.199371,224.794739 
z"/>
<path fill="#E3217D" opacity="1.000000" stroke="none" 
	d="
M295.413208,151.307281 
	C295.072632,151.825409 294.374847,152.371857 293.351837,152.995483 
	C293.703064,152.493652 294.379547,151.914627 295.413208,151.307281 
z"/>
<path fill="#E3217D" opacity="1.000000" stroke="none" 
	d="
M180.785339,325.919708 
	C180.613953,325.489624 180.625290,324.952393 180.827393,324.209839 
	C181.001434,324.607208 180.984741,325.209869 180.785339,325.919708 
z"/>
<path fill="#E3217D" opacity="1.000000" stroke="none" 
	d="
M127.901947,252.201233 
	C128.380173,252.458969 128.744217,252.923767 129.103928,253.694031 
	C128.662323,253.469101 128.225037,252.938690 127.901947,252.201233 
z"/>
<path fill="#E3217D" opacity="1.000000" stroke="none" 
	d="
M183.601578,220.508179 
	C183.151794,220.112854 182.725067,219.375839 182.282394,218.314331 
	C182.719177,218.715378 183.171906,219.440948 183.601578,220.508179 
z"/>
<path fill="#E3217D" opacity="1.000000" stroke="none" 
	d="
M176.772827,346.917511 
	C176.610443,346.487885 176.631271,345.953522 176.840118,345.214844 
	C177.004105,345.611267 176.980087,346.212036 176.772827,346.917511 
z"/>
<path fill="#E3217D" opacity="1.000000" stroke="none" 
	d="
M254.843781,156.487946 
	C254.238037,156.432785 253.463135,156.097870 252.517883,155.483337 
	C253.123230,155.538544 253.898926,155.873367 254.843781,156.487946 
z"/>
<path fill="#E3217D" opacity="1.000000" stroke="none" 
	d="
M410.854736,387.849060 
	C410.886383,387.712524 411.153656,387.505951 411.678589,387.296173 
	C411.679657,387.499146 411.397675,387.661133 410.854736,387.849060 
z"/>
<path fill="#E3217D" opacity="1.000000" stroke="none" 
	d="
M412.964996,386.870300 
	C412.890198,386.626404 413.124268,386.424103 413.692932,386.331604 
	C413.704315,386.525848 413.453094,386.682678 412.964996,386.870300 
z"/>
<path fill="#E3217D" opacity="1.000000" stroke="none" 
	d="
M402.766174,153.535187 
	C402.609314,153.734650 402.317535,153.659012 401.930481,153.249146 
	C402.083221,153.127121 402.348572,153.242172 402.766174,153.535187 
z"/>
<path fill="#E31879" opacity="1.000000" stroke="none" 
	d="
M356.278015,290.308533 
	C368.619965,291.627747 380.714355,291.990753 392.290405,294.628540 
	C399.621918,296.299133 407.055756,300.298279 412.904938,305.119843 
	C425.174866,315.234161 425.675873,331.420563 414.198700,342.404541 
	C408.298737,348.050964 401.037170,352.588165 393.749817,356.401306 
	C381.369385,362.879425 367.703613,365.381317 353.901154,367.031006 
	C350.585114,367.427338 349.112396,366.567444 348.802460,362.958923 
	C346.921448,341.062378 344.806091,319.186127 342.833618,297.297272 
	C342.268372,291.024414 342.374054,291.004059 348.826630,290.660034 
	C351.154297,290.535950 353.482880,290.429596 356.278015,290.308533 
z"/>
<path fill="#E31879" opacity="1.000000" stroke="none" 
	d="
M376.719421,247.818771 
	C365.756531,251.238358 355.139282,254.531387 344.488495,257.712097 
	C340.909119,258.781006 338.955139,257.681641 338.619965,253.516220 
	C336.763458,230.444412 334.706451,207.388779 332.745239,184.325317 
	C332.546173,181.984604 332.201355,179.431793 335.696228,179.154922 
	C352.411896,177.830658 369.068512,177.372345 384.683807,184.951355 
	C400.274261,192.518280 406.609192,208.155045 400.725372,224.358810 
	C397.764679,232.512512 391.784393,238.288742 384.778748,243.058609 
	C382.307220,244.741348 379.633423,246.127014 376.719421,247.818771 
z"/>
</svg>